<?xml version="1.0" encoding="UTF-8" standalone="no"?>
<!DOCTYPE svg PUBLIC "-//W3C//DTD SVG 1.1//EN" "http://www.w3.org/Graphics/SVG/1.1/DTD/svg11.dtd">
<svg xmlns="http://www.w3.org/2000/svg" version="1.1" viewBox="0.00 0.00 161.00 161.00">
<g stroke-width="5.00" fill="none" stroke-linecap="butt">
<path stroke="#b4c1d1" vector-effect="non-scaling-stroke" d="
  M 120.70 10.77
  Q 114.88 13.83 112.06 18.33"
/>
<path stroke="#e9f2e6" vector-effect="non-scaling-stroke" d="
  M 112.06 18.33
  Q 109.23 21.77 108.00 26.62"
/>
<path stroke="#b4c1d1" vector-effect="non-scaling-stroke" d="
  M 108.00 26.62
  Q 106.93 29.30 107.05 31.97"
/>
<path stroke="#a8b4c4" vector-effect="non-scaling-stroke" d="
  M 107.05 31.97
  L 107.79 38.56
  Q 107.86 39.17 107.43 39.60
  L 98.46 48.68
  A 0.23 0.23 0.0 0 0 98.68 49.06
  L 110.66 45.98
  A 0.81 0.79 63.8 0 1 111.51 46.28
  Q 114.68 50.52 119.47 53.40"
/>
<path stroke="#c5d8d5" vector-effect="non-scaling-stroke" d="
  M 119.47 53.40
  Q 120.47 54.39 123.53 54.58"
/>
<path stroke="#a2a9bc" vector-effect="non-scaling-stroke" d="
  M 123.53 54.58
  Q 124.84 55.99 128.06 56.39
  Q 143.76 58.36 153.60 45.86"
/>
<path stroke="#bcd1d0" vector-effect="non-scaling-stroke" d="
  M 161.00 89.00
  L 158.53 83.87"
/>
<path stroke="#d3e4d9" vector-effect="non-scaling-stroke" d="
  M 158.53 83.87
  L 156.06 78.75
  Q 155.75 78.10 155.40 78.72
  L 149.21 89.73"
/>
<path stroke="#bcd1d0" vector-effect="non-scaling-stroke" d="
  M 149.21 89.73
  Q 148.64 90.02 147.80 92.16"
/>
<path stroke="#d3e4d9" vector-effect="non-scaling-stroke" d="
  M 147.80 92.16
  Q 137.13 84.09 130.00 93.95
  C 129.23 95.03 129.05 96.41 128.78 97.70
  Q 128.67 98.24 128.17 98.00
  Q 126.44 97.16 124.64 97.88
  A 1.01 0.99 50.5 0 1 123.72 97.78
  Q 114.90 91.84 109.33 100.84
  A 0.97 0.97 0.0 0 0 110.15 102.32
  L 141.31 102.47"
/>
<path stroke="#bcd1d0" vector-effect="non-scaling-stroke" d="
  M 141.31 102.47
  L 137.72 108.61"
/>
<path stroke="#e9f2e6" vector-effect="non-scaling-stroke" d="
  M 137.72 108.61
  Q 136.52 109.22 135.75 109.17
  C 130.57 108.81 124.21 108.24 122.33 113.28
  A 0.99 0.99 0.0 0 0 123.27 114.62
  L 134.20 114.46"
/>
<path stroke="#bcd1d0" vector-effect="non-scaling-stroke" d="
  M 134.20 114.46
  L 121.06 136.60"
/>
<path stroke="#e9f2e6" vector-effect="non-scaling-stroke" d="
  M 121.06 136.60
  L 115.85 126.57
  A 0.78 0.78 0.0 0 0 114.49 126.52
  L 99.70 150.38"
/>
<path stroke="#b4c1d1" vector-effect="non-scaling-stroke" d="
  M 99.70 150.38
  L 93.91 99.34"
/>
<path stroke="#f2d9c6" vector-effect="non-scaling-stroke" d="
  M 93.91 99.34
  Q 95.23 98.65 95.14 97.25
  Q 94.54 87.23 93.79 76.54"
/>
<path stroke="#d0ada9" vector-effect="non-scaling-stroke" d="
  M 93.79 76.54
  C 97.55 82.16 99.92 90.41 108.82 84.92
  Q 113.82 81.83 119.25 77.74
  Q 119.85 77.29 119.26 76.12"
/>
<path stroke="#fce1d2" vector-effect="non-scaling-stroke" d="
  M 119.26 76.12
  Q 120.28 75.95 121.39 75.07
  Q 121.84 74.71 122.40 74.83
  L 134.47 77.36
  A 1.34 1.32 -70.1 0 0 135.92 76.67
  Q 137.83 72.99 135.16 70.43
  C 133.11 68.46 128.35 68.86 125.48 68.46
  Q 124.43 68.31 125.21 67.60
  L 127.28 65.67
  Q 127.61 65.37 127.77 64.94
  Q 128.15 63.89 127.23 63.17
  A 0.97 0.97 0.0 0 0 126.03 63.17
  L 120.85 67.25
  A 1.30 1.29 79.8 0 0 120.41 67.89
  C 119.18 71.61 116.64 71.00 113.80 72.65"
/>
<path stroke="#f2d9c6" vector-effect="non-scaling-stroke" d="
  M 113.80 72.65
  L 105.66 77.66
  A 0.64 0.63 60.0 0 1 104.77 77.42
  Q 99.58 67.80 94.31 58.01
  C 93.00 55.57 91.17 54.29 89.06 52.70
  A 0.61 0.61 0.0 0 0 88.09 53.05
  Q 87.62 55.09 87.68 57.25
  Q 88.24 76.72 87.64 96.21"
/>
<path stroke="#9896aa" vector-effect="non-scaling-stroke" d="
  M 87.64 96.21
  L 78.24 96.22"
/>
<path stroke="#c3b4b9" vector-effect="non-scaling-stroke" d="
  M 78.24 96.22
  Q 78.29 95.94 77.96 96.07"
/>
<path stroke="#f2d9c6" vector-effect="non-scaling-stroke" d="
  M 77.96 96.07
  L 77.74 84.58"
/>
<path stroke="#c3b4b9" vector-effect="non-scaling-stroke" d="
  M 77.74 84.58
  L 78.02 81.78"
/>
<path stroke="#fce1d2" vector-effect="non-scaling-stroke" d="
  M 78.02 81.78
  Q 82.25 76.56 78.31 70.68
  Q 77.99 70.22 77.99 69.66
  L 77.99 52.57
  Q 77.99 51.90 78.43 52.40
  Q 81.52 55.90 85.27 53.12
  Q 85.71 52.79 85.60 52.26
  L 85.07 49.46"
/>
<path stroke="#c7a6aa" vector-effect="non-scaling-stroke" d="
  M 85.07 49.46
  Q 84.94 49.17 85.09 48.52"
/>
<path stroke="#fce1d2" vector-effect="non-scaling-stroke" d="
  M 85.09 48.52
  L 85.29 47.97
  Q 85.45 47.53 85.89 47.37
  C 93.79 44.46 91.80 35.24 91.56 28.55"
/>
<path stroke="#b4c1d1" vector-effect="non-scaling-stroke" d="
  M 91.56 28.55
  Q 92.48 27.01 93.92 24.84
  Q 95.51 22.47 95.67 20.88
  Q 96.03 17.40 92.88 15.27
  A 0.73 0.72 23.6 0 0 91.77 15.70
  C 89.50 25.07 74.73 14.60 71.86 24.90
  Q 71.72 25.40 71.30 25.72
  Q 66.62 29.27 69.85 34.70"
/>
<path stroke="#fce1d2" vector-effect="non-scaling-stroke" d="
  M 69.85 34.70
  Q 67.85 41.41 74.46 40.93
  A 1.04 1.02 -21.8 0 1 75.30 41.28
  Q 78.87 45.43 77.63 50.90
  Q 77.54 51.27 77.02 51.45"
/>
<path stroke="#f2d9c6" vector-effect="non-scaling-stroke" d="
  M 77.02 51.45
  L 74.86 51.32"
/>
<path stroke="#b4c1d1" vector-effect="non-scaling-stroke" d="
  M 74.86 51.32
  C 67.12 51.15 58.86 50.69 60.64 61.59"
/>
<path stroke="#f2d9c6" vector-effect="non-scaling-stroke" d="
  M 60.64 61.59
  Q 51.33 72.43 47.83 76.02
  Q 44.45 79.49 45.07 83.16"
/>
<path stroke="#d0ada9" vector-effect="non-scaling-stroke" d="
  M 45.07 83.16
  C 47.26 89.19 54.95 86.11 59.41 85.22
  C 59.84 85.14 60.40 85.34 60.69 85.59"
/>
<path stroke="#9896aa" vector-effect="non-scaling-stroke" d="
  M 60.69 85.59
  Q 61.00 86.55 61.78 87.20"
/>
<path stroke="#c3b4b9" vector-effect="non-scaling-stroke" d="
  M 61.78 87.20
  Q 61.90 87.26 62.01 87.55
  Q 62.09 87.79 62.00 87.94
  Q 61.87 88.14 61.53 88.15"
/>
<path stroke="#9896aa" vector-effect="non-scaling-stroke" d="
  M 61.53 88.15
  C 58.77 86.98 57.45 89.40 57.55 91.70
  Q 57.57 92.15 57.99 92.29
  Q 59.94 92.95 60.91 91.37
  Q 61.21 90.89 61.76 91.00
  L 67.29 92.11
  Q 67.87 92.23 67.95 92.81
  Q 68.00 93.15 67.88 93.56"
/>
<path stroke="#e6c1b8" vector-effect="non-scaling-stroke" d="
  M 67.88 93.56
  Q 67.85 93.85 67.68 93.99
  Q 67.56 94.09 67.29 94.05
  C 63.91 93.51 60.57 93.63 57.30 92.65
  C 54.69 91.86 53.54 93.81 53.15 96.19
  Q 52.35 101.00 52.10 105.90
  C 51.91 109.70 53.42 110.66 56.76 111.44
  Q 62.34 112.74 68.45 113.88"
/>
<path stroke="#c7a6aa" vector-effect="non-scaling-stroke" d="
  M 68.45 113.88
  L 69.95 113.99
  Q 70.49 114.03 70.50 114.57
  L 70.52 116.91"
/>
<path stroke="#b4c1d1" vector-effect="non-scaling-stroke" d="
  M 70.52 116.91
  L 69.94 126.54"
/>
<path stroke="#e9f2e6" vector-effect="non-scaling-stroke" d="
  M 69.94 126.54
  Q 69.95 128.36 69.23 129.46
  A 0.54 0.54 0.0 0 1 68.31 129.43
  L 58.64 113.05
  A 1.68 1.68 0.0 0 0 55.74 113.05
  L 51.67 119.98"
/>
<path stroke="#bcd1d0" vector-effect="non-scaling-stroke" d="
  M 51.67 119.98
  L 46.64 111.82"
/>
<path stroke="#d3e4d9" vector-effect="non-scaling-stroke" d="
  M 46.64 111.82
  L 40.16 100.19
  A 0.36 0.36 0.0 0 0 39.51 100.23
  L 37.54 104.89
  Q 37.31 105.43 36.82 105.11
  Q 36.66 105.01 36.58 104.78"
/>
<path stroke="#bcd1d0" vector-effect="non-scaling-stroke" d="
  M 36.58 104.78
  Q 36.52 104.66 36.47 104.53"
/>
<path stroke="#a8b4c4" vector-effect="non-scaling-stroke" d="
  M 36.47 104.53
  L 36.54 62.97"
/>
<path stroke="#cbddd7" vector-effect="non-scaling-stroke" d="
  M 36.54 62.97
  L 48.84 62.76
  A 0.55 0.55 0.0 0 0 49.38 62.22
  L 49.49 55.03
  A 0.62 0.62 0.0 0 0 48.89 54.40
  Q 43.33 54.20 37.97 54.45
  Q 37.42 54.47 37.15 54.23
  Q 36.82 53.93 36.68 53.43"
/>
<path stroke="#a8b4c4" vector-effect="non-scaling-stroke" d="
  M 36.68 53.43
  L 36.43 51.39
  A 0.83 0.83 0.0 0 0 34.85 51.16
  Q 34.40 52.19 34.57 53.71"
/>
<path stroke="#cbddd7" vector-effect="non-scaling-stroke" d="
  M 34.57 53.71
  L 34.31 54.06
  A 1.03 1.02 -71.3 0 1 33.53 54.45
  Q 28.62 54.56 23.67 54.45
  C 19.65 54.36 17.30 55.32 15.30 58.61
  Q 15.06 59.01 15.37 59.36
  C 17.50 61.65 19.30 62.75 22.65 62.72
  Q 27.94 62.69 33.19 62.77
  Q 33.92 62.78 34.21 63.09
  Q 34.57 63.49 34.59 64.24"
/>
<path stroke="#a8b4c4" vector-effect="non-scaling-stroke" d="
  M 34.59 64.24
  L 34.58 66.96"
/>
<path stroke="#c5d8d5" vector-effect="non-scaling-stroke" d="
  M 34.58 66.96
  Q 30.25 68.32 26.26 70.10
  C 22.93 71.59 21.20 74.45 19.13 77.27
  Q 18.70 77.85 19.31 78.23
  L 24.18 81.25
  A 0.54 0.53 -37.8 0 0 24.63 81.30
  L 34.71 77.86"
/>
<path stroke="#a8b4c4" vector-effect="non-scaling-stroke" d="
  M 34.71 77.86
  L 34.99 110.40"
/>
<path stroke="#bcd1d0" vector-effect="non-scaling-stroke" d="
  M 34.99 110.40
  L 44.86 126.92"
/>
<path stroke="#d3e4d9" vector-effect="non-scaling-stroke" d="
  M 44.86 126.92
  L 35.03 122.18
  A 0.69 0.68 28.7 0 0 34.16 122.43
  L 31.58 126.56
  A 0.66 0.66 0.0 0 1 30.46 126.55
  L 27.94 122.49
  Q 27.63 121.99 27.10 122.26
  L 20.60 125.72"
/>
<path stroke="#b4c1d1" vector-effect="non-scaling-stroke" d="
  M 20.60 125.72
  Q 19.27 124.06 19.94 121.85"
/>
<path stroke="#bcd1d0" vector-effect="non-scaling-stroke" d="
  M 19.94 121.85
  L 29.46 106.64
  Q 30.07 105.66 29.55 104.61
  Q 20.80 87.02 12.08 68.94
  Q 10.69 66.06 7.43 64.99
  Q 6.88 64.81 6.70 65.36
  L 5.32 69.56"
/>
<path stroke="#d3e4d9" vector-effect="non-scaling-stroke" d="
  M 5.32 69.56
  Q 3.20 67.42 4.13 65.76"
/>
<path stroke="#d3e4d9" vector-effect="non-scaling-stroke" d="
  M 11.81 38.78
  L 61.92 39.12
  A 0.46 0.46 0.0 0 0 62.34 38.47
  Q 60.89 35.38 57.52 34.94
  A 0.72 0.71 5.1 0 1 56.89 34.19
  Q 57.75 19.91 44.52 15.27
  Q 41.29 14.14 33.23 15.46"
/>
<path stroke="#a2a9bc" vector-effect="non-scaling-stroke" d="
  M 67.53 10.83
  A 0.25 0.25 0.0 0 1 67.56 10.38
  L 73.80 7.89
  A 0.51 0.51 0.0 0 0 73.58 6.90
  Q 69.30 7.14 65.16 9.21
  Q 64.60 9.49 63.39 9.57
  A 1.71 1.68 56.2 0 1 62.57 9.40
  Q 60.26 8.24 57.61 7.95
  A 0.99 0.98 -32.1 0 0 57.17 9.86
  L 60.64 11.06
  A 0.37 0.37 0.0 0 1 60.76 11.68
  L 59.59 12.74
  A 0.65 0.64 -76.9 0 0 60.26 13.82
  L 64.15 12.26
  A 0.58 0.57 41.5 0 1 64.54 12.24
  L 71.02 14.07
  A 0.68 0.67 -68.7 0 0 71.80 13.72
  L 72.93 11.49
  A 0.36 0.35 89.8 0 0 72.45 11.01
  Q 70.05 12.27 67.53 10.83"
/>
<path stroke="#bcd1d0" vector-effect="non-scaling-stroke" d="
  M 14.73 44.56
  Q 14.43 45.16 14.85 45.60
  A 0.48 0.44 -9.2 0 0 15.05 45.73
  Q 16.08 46.09 16.34 45.01
  A 0.67 0.66 -87.3 0 0 15.60 44.19
  L 15.11 44.27
  A 0.49 0.49 0.0 0 0 14.73 44.56"
/>
<path stroke="#cbddd7" vector-effect="non-scaling-stroke" d="
  M 159.5499 69.3304
  A 0.60 0.60 0.0 0 0 158.9478 68.7325
  L 143.2079 68.7875
  A 0.60 0.60 0.0 0 0 142.6100 69.3896
  L 142.6101 69.4296
  A 0.60 0.60 0.0 0 0 143.2122 70.0275
  L 158.9521 69.9725
  A 0.60 0.60 0.0 0 0 159.5500 69.3704
  L 159.5499 69.3304"
/>
<path stroke="#e9f2e6" vector-effect="non-scaling-stroke" d="
  M 107.65 126.40
  A 2.93 2.93 0.0 0 0 104.72 123.47
  A 2.93 2.93 0.0 0 0 101.79 126.40
  A 2.93 2.93 0.0 0 0 104.72 129.33
  A 2.93 2.93 0.0 0 0 107.65 126.40"
/>
<path stroke="#9fb5c4" vector-effect="non-scaling-stroke" d="
  M 134.63 21.46
  C 129.81 24.08 126.82 30.13 132.36 33.90
  A 1.49 1.46 -27.8 0 0 133.23 34.16
  C 134.88 34.14 136.79 33.76 138.16 34.54
  C 140.42 35.83 140.21 39.33 140.04 42.00"
/>
<path stroke="#7a9bb2" vector-effect="non-scaling-stroke" d="
  M 140.04 42.00
  Q 139.07 42.79 138.87 45.35"
/>
<path stroke="#576c99" vector-effect="non-scaling-stroke" d="
  M 138.87 45.35
  L 138.52 43.75
  Q 138.41 43.21 137.87 43.31
  Q 129.86 44.80 121.47 44.34"
/>
<path stroke="#7a9bb2" vector-effect="non-scaling-stroke" d="
  M 121.47 44.34
  Q 121.86 43.65 121.56 42.75"
/>
<path stroke="#9fb5c4" vector-effect="non-scaling-stroke" d="
  M 121.56 42.75
  Q 123.16 40.57 123.16 38.37
  A 0.75 0.75 0.0 0 0 122.58 37.63
  Q 118.85 36.74 116.38 34.16
  C 114.33 32.02 111.39 30.74 110.19 34.46"
/>
<path stroke="#7a9bb2" vector-effect="non-scaling-stroke" d="
  M 110.19 34.46
  L 109.71 36.29"
/>
<path stroke="#5d77a2" vector-effect="non-scaling-stroke" d="
  M 109.71 36.29
  L 109.28 32.99"
/>
<path stroke="#9fb5c4" vector-effect="non-scaling-stroke" d="
  M 109.28 32.99
  Q 109.45 33.02 109.58 32.99
  A 0.16 0.15 -18.8 0 0 109.69 32.77
  L 108.56 30.52
  A 0.36 0.36 0.0 0 0 107.88 30.61
  Q 107.82 30.94 107.90 31.50"
/>
<path stroke="#5d77a2" vector-effect="non-scaling-stroke" d="
  M 107.90 31.50
  Q 107.32 31.58 107.05 31.97"
/>
<path stroke="#9fb5c4" vector-effect="non-scaling-stroke" d="
  M 108.00 26.62
  L 109.68 27.19
  A 0.51 0.51 0.0 0 0 110.34 26.80
  Q 111.02 23.01 113.77 20.34
  A 1.14 1.14 0.0 0 1 114.60 20.03
  L 116.36 20.12
  A 0.37 0.37 0.0 0 0 116.53 19.42
  L 115.92 19.15
  A 0.65 0.64 -47.6 0 1 115.87 18.00
  Q 116.88 17.42 117.36 17.89
  Q 117.72 18.25 117.77 18.83
  Q 117.79 19.09 118.04 18.99
  L 118.44 18.83
  A 0.51 0.51 0.0 0 0 118.75 18.25
  Q 118.34 16.50 118.99 14.75
  A 0.62 0.61 -7.8 0 0 118.05 14.04
  L 112.06 18.33"
/>
<path stroke="#88a7b7" vector-effect="non-scaling-stroke" d="
  M 110.87 28.63
  Q 110.53 28.12 109.64 28.43
  A 0.61 0.61 0.0 0 0 109.74 29.61
  L 112.74 30.10
  A 0.56 0.56 0.0 0 0 112.98 29.01
  Q 112.11 28.76 110.87 28.63"
/>
<path stroke="#d3e4d9" vector-effect="non-scaling-stroke" d="
  M 16.80 31.59
  Q 18.81 34.74 22.46 33.48
  Q 22.92 33.32 22.92 32.84
  Q 22.98 27.59 25.00 22.42"
/>
<path stroke="#d3e4d9" vector-effect="non-scaling-stroke" d="
  M 45.91 29.03
  A 5.87 5.87 0.0 0 0 40.04 23.16
  A 5.87 5.87 0.0 0 0 34.17 29.03
  A 5.87 5.87 0.0 0 0 40.04 34.90
  A 5.87 5.87 0.0 0 0 45.91 29.03"
/>
<path stroke="#b2a4b0" vector-effect="non-scaling-stroke" d="
  M 91.56 28.55
  Q 83.53 28.47 76.13 26.70
  Q 75.50 26.55 75.80 27.13
  Q 77.67 30.79 75.84 34.59
  Q 75.59 35.10 75.09 34.85
  Q 72.38 33.48 69.85 34.70"
/>
<path stroke="#b0ccc8" vector-effect="non-scaling-stroke" d="
  M 147.01 36.02
  L 140.04 42.00"
/>
<path stroke="#c58889" vector-effect="non-scaling-stroke" d="
  M 85.09 48.52
  L 85.07 47.97
  A 0.49 0.48 -83.2 0 0 84.73 47.53
  L 78.78 45.59
  Q 78.40 45.47 78.27 45.84
  Q 78.01 46.61 78.52 47.09
  C 79.70 48.19 83.00 50.91 85.07 49.46"
/>
<path stroke="#c19698" vector-effect="non-scaling-stroke" d="
  M 78.02 81.78
  L 77.87 80.89
  Q 77.80 80.42 77.31 80.49
  L 67.73 82.00"
/>
<path stroke="#f0bca5" vector-effect="non-scaling-stroke" d="
  M 67.73 82.00
  Q 65.85 80.52 66.98 77.35"
/>
<path stroke="#a697a3" vector-effect="non-scaling-stroke" d="
  M 66.98 77.35
  L 68.45 76.92"
/>
<path stroke="#f0bca5" vector-effect="non-scaling-stroke" d="
  M 68.45 76.92
  Q 69.52 77.45 69.70 76.78
  Q 70.69 72.99 71.60 70.87
  Q 71.88 70.22 72.27 70.03
  Q 72.89 69.73 73.50 70.31"
/>
<path stroke="#b2a4b0" vector-effect="non-scaling-stroke" d="
  M 73.50 70.31
  L 73.44 71.10
  A 0.52 0.52 0.0 0 0 73.96 71.65
  Q 75.14 71.65 76.21 71.19"
/>
<path stroke="#f0bca5" vector-effect="non-scaling-stroke" d="
  M 76.21 71.19
  Q 76.68 71.52 77.20 71.28
  Q 77.66 71.08 77.66 70.57
  L 77.92 52.35
  Q 77.92 51.80 77.45 51.51
  Q 77.20 51.36 77.02 51.45"
/>
<path stroke="#967989" vector-effect="non-scaling-stroke" d="
  M 81.75 28.87
  Q 80.26 28.60 79.45 29.76
  A 0.40 0.40 0.0 0 0 79.87 30.38
  L 81.78 29.94
  A 0.55 0.54 43.6 0 0 81.75 28.87"
/>
<path stroke="#967989" vector-effect="non-scaling-stroke" d="
  M 89.7178 29.5876
  A 1.39 0.59 3.2 0 0 88.3629 28.9209
  A 1.39 0.59 3.2 0 0 86.9422 29.4324
  A 1.39 0.59 3.2 0 0 88.2971 30.0991
  A 1.39 0.59 3.2 0 0 89.7178 29.5876"
/>
<path stroke="#967989" vector-effect="non-scaling-stroke" d="
  M 80.54 31.16
  L 80.46 34.24
  A 0.24 0.24 0.0 0 0 80.69 34.49
  L 81.13 34.50
  A 1.07 0.86 -88.5 0 0 82.02 33.45
  L 82.06 32.03
  A 1.07 0.86 -88.5 0 0 81.23 30.94
  L 80.79 30.93
  A 0.24 0.24 0.0 0 0 80.54 31.16"
/>
<path stroke="#967989" vector-effect="non-scaling-stroke" d="
  M 88.4852 34.6242
  A 1.81 0.79 85.4 0 0 89.1275 32.7566
  A 1.81 0.79 85.4 0 0 88.1948 31.0158
  A 1.81 0.79 85.4 0 0 87.5525 32.8834
  A 1.81 0.79 85.4 0 0 88.4852 34.6242"
/>
<path stroke="#e4a397" vector-effect="non-scaling-stroke" d="
  M 85.93 34.98
  Q 84.84 35.63 86.13 35.96
  A 0.70 0.69 87.5 0 0 86.96 35.05
  L 85.81 31.85
  A 0.29 0.28 -53.0 0 0 85.26 31.93
  Q 85.16 33.23 86.05 34.18
  Q 86.49 34.66 85.93 34.98"
/>
<path stroke="#c58889" vector-effect="non-scaling-stroke" d="
  M 74.4435 37.7749
  A 1.39 0.95 17.8 0 0 73.4104 36.4455
  A 1.39 0.95 17.8 0 0 71.7965 36.9251
  A 1.39 0.95 17.8 0 0 72.8296 38.2545
  A 1.39 0.95 17.8 0 0 74.4435 37.7749"
/>
<path stroke="#967989" vector-effect="non-scaling-stroke" d="
  M 80.53 37.64
  Q 80.61 37.58 80.08 37.56
  Q 79.65 37.54 79.68 37.97
  L 79.96 41.63
  A 0.66 0.66 0.0 0 0 80.84 42.20
  Q 83.71 41.14 85.03 43.78
  Q 85.29 44.28 85.85 44.22
  C 88.86 43.87 89.40 40.06 88.75 37.70
  Q 88.69 37.49 88.47 37.48
  Q 87.63 37.46 88.38 37.36"
/>
<path stroke="#fce1d2" vector-effect="non-scaling-stroke" d="
  M 88.38 37.36
  Q 84.55 36.13 80.53 37.64"
/>
<path stroke="#9896aa" vector-effect="non-scaling-stroke" d="
  M 88.38 37.36
  Q 84.97 40.14 80.53 37.64"
/>
<path stroke="#93a8b7" vector-effect="non-scaling-stroke" d="
  M 109.28 32.99
  L 107.90 31.50"
/>
<path stroke="#6e8ea6" vector-effect="non-scaling-stroke" d="
  M 109.71 36.29
  C 109.59 39.08 110.04 40.85 112.19 42.96
  C 114.42 45.17 115.44 47.74 117.41 50.18
  Q 118.59 51.64 119.47 53.40"
/>
<path stroke="#b0ccc8" vector-effect="non-scaling-stroke" d="
  M 121.56 42.75
  Q 121.22 43.93 119.49 43.15
  C 116.56 41.83 111.34 38.39 110.19 34.46"
/>
<path stroke="#68839d" vector-effect="non-scaling-stroke" d="
  M 121.47 44.34
  Q 120.37 49.27 123.53 54.58"
/>
<path stroke="#68839d" vector-effect="non-scaling-stroke" d="
  M 152.92 44.88
  L 150.42 45.50
  Q 149.55 45.72 149.95 44.92
  L 151.06 42.72
  Q 151.16 42.53 151.06 42.34
  Q 150.99 42.22 150.88 42.11
  Q 150.56 41.80 150.26 42.12
  Q 148.13 44.34 145.36 48.58
  Q 143.71 51.11 140.37 51.19
  Q 139.84 51.20 139.75 50.68
  L 138.87 45.35"
/>
<path stroke="#7493a8" vector-effect="non-scaling-stroke" d="
  M 36.68 53.43
  Q 36.36 53.89 35.99 54.17
  Q 35.21 54.77 34.57 53.71"
/>
<path stroke="#a79ca4" vector-effect="non-scaling-stroke" d="
  M 74.86 51.32
  L 72.49 52.78
  Q 72.00 53.09 72.28 53.59
  Q 75.92 60.18 76.79 69.00
  Q 76.95 70.69 76.21 71.19"
/>
<path stroke="#a79ca4" vector-effect="non-scaling-stroke" d="
  M 73.50 70.31
  Q 73.55 61.87 69.80 55.42
  A 2.08 2.07 -39.1 0 0 66.46 55.08
  L 60.64 61.59"
/>
<path stroke="#f0bca5" vector-effect="non-scaling-stroke" d="
  M 113.80 72.65
  C 114.94 72.79 115.23 72.04 116.18 72.02
  Q 117.29 72.00 117.69 73.21"
/>
<path stroke="#c4887c" vector-effect="non-scaling-stroke" d="
  M 117.69 73.21
  Q 116.19 73.58 118.03 75.18
  Q 118.49 75.59 118.13 76.08
  L 117.28 77.24
  Q 116.79 77.91 116.28 77.26
  Q 115.34 76.07 114.82 74.66
  Q 114.74 74.45 114.62 74.38
  Q 114.45 74.27 114.24 74.33
  Q 113.65 74.49 113.92 75.05
  L 115.06 77.42
  A 0.63 0.62 -28.9 0 1 114.82 78.22
  C 110.85 80.67 104.22 86.26 99.97 82.04
  Q 97.50 79.59 94.98 74.32
  C 93.25 70.70 93.89 65.99 93.67 61.99
  Q 93.66 61.85 93.60 61.76
  Q 93.51 61.63 93.37 61.58
  A 0.23 0.22 11.9 0 0 93.06 61.78
  Q 92.69 69.52 93.79 76.54"
/>
<path stroke="#a79ca4" vector-effect="non-scaling-stroke" d="
  M 93.91 99.34
  Q 92.27 98.51 87.91 98.91"
/>
<path stroke="#8c717d" vector-effect="non-scaling-stroke" d="
  M 87.91 98.91
  Q 88.21 96.57 87.64 96.21"
/>
<path stroke="#7493a8" vector-effect="non-scaling-stroke" d="
  M 36.54 62.97
  L 35.84 62.67
  Q 35.36 62.46 35.02 62.85
  Q 34.60 63.32 34.59 64.24"
/>
<path stroke="#9b8f97" vector-effect="non-scaling-stroke" d="
  M 68.45 76.92
  L 68.63 64.31
  A 0.29 0.28 -23.8 0 0 68.13 64.12
  L 56.83 76.50
  Q 56.50 76.86 56.03 76.97
  L 53.98 77.47
  A 0.22 0.22 0.0 0 0 54.04 77.91
  L 56.24 77.81
  Q 56.78 77.79 57.16 77.41
  L 60.12 74.46
  Q 60.87 73.71 60.83 74.77
  Q 60.73 77.54 62.34 76.79"
/>
<path stroke="#c4887c" vector-effect="non-scaling-stroke" d="
  M 62.34 76.79
  Q 63.66 78.60 63.25 81.77
  Q 63.18 82.27 62.68 82.33
  Q 56.87 83.02 51.26 84.01
  Q 48.58 84.49 45.07 83.16"
/>
<path stroke="#ce8f88" vector-effect="non-scaling-stroke" d="
  M 117.69 73.21
  L 119.26 76.12"
/>
<path stroke="#6687a1" vector-effect="non-scaling-stroke" d="
  M 36.47 104.53
  Q 36.10 107.36 36.11 110.25
  Q 36.11 111.29 34.99 110.40"
/>
<path stroke="#6e8ea6" vector-effect="non-scaling-stroke" d="
  M 34.71 77.86
  L 34.58 66.96"
/>
<path stroke="#9b8f97" vector-effect="non-scaling-stroke" d="
  M 66.98 77.35
  Q 65.09 76.10 63.95 76.72"
/>
<path stroke="#7a637a" vector-effect="non-scaling-stroke" d="
  M 63.95 76.72
  L 62.34 76.79"
/>
<path stroke="#7294ae" vector-effect="non-scaling-stroke" d="
  M 19.94 121.85
  Q 18.96 116.07 19.24 110.32
  Q 19.42 106.67 18.55 104.83
  Q 16.81 101.09 12.80 99.55"
/>
<path stroke="#91b7b6" vector-effect="non-scaling-stroke" d="
  M 12.80 99.55
  L 5.32 69.56"
/>
<path stroke="#88a7b7" vector-effect="non-scaling-stroke" d="
  M 12.80 99.55
  Q 7.68 99.03 3.15 101.05"
/>
<path stroke="#b78f8c" vector-effect="non-scaling-stroke" d="
  M 67.73 82.00
  Q 67.88 81.91 68.04 81.82"
/>
<path stroke="#c4887c" vector-effect="non-scaling-stroke" d="
  M 68.04 81.82
  L 64.61 82.25
  Q 63.93 82.33 63.93 81.64
  L 63.95 76.72"
/>
<path stroke="#95626f" vector-effect="non-scaling-stroke" d="
  M 68.04 81.82
  Q 68.78 81.92 69.19 82.29
  A 0.93 0.92 27.6 0 1 69.48 83.20
  L 69.23 84.23"
/>
<path stroke="#ce8f88" vector-effect="non-scaling-stroke" d="
  M 69.23 84.23
  L 69.09 85.70"
/>
<path stroke="#95626f" vector-effect="non-scaling-stroke" d="
  M 69.09 85.70
  Q 68.45 85.50 68.55 85.88"
/>
<path stroke="#6a4560" vector-effect="non-scaling-stroke" d="
  M 68.55 85.88
  L 68.91 83.06
  Q 69.00 82.41 68.35 82.33
  L 67.34 82.21
  A 0.44 0.44 0.0 0 0 66.86 82.73
  Q 66.99 83.44 66.60 83.81
  C 65.79 84.60 62.43 84.20 60.69 85.59"
/>
<path stroke="#91b7b6" vector-effect="non-scaling-stroke" d="
  M 158.53 83.87
  Q 157.55 84.22 155.57 86.08
  Q 154.12 87.45 149.21 89.73"
/>
<path stroke="#b78f8c" vector-effect="non-scaling-stroke" d="
  M 77.74 84.58
  L 73.93 95.05
  Q 73.73 95.58 74.21 95.91
  Q 75.75 96.96 77.96 96.07"
/>
<path stroke="#5d4c70" vector-effect="non-scaling-stroke" d="
  M 78.24 96.22
  L 77.96 98.67"
/>
<path stroke="#797797" vector-effect="non-scaling-stroke" d="
  M 77.96 98.67
  Q 77.63 98.25 77.60 97.68
  Q 77.57 97.23 77.12 97.17
  Q 76.21 97.04 75.67 98.02"
/>
<path stroke="#8c5b70" vector-effect="non-scaling-stroke" d="
  M 75.67 98.02
  Q 75.41 97.13 74.80 96.51
  Q 74.41 96.10 73.89 96.34
  L 71.96 97.23"
/>
<path stroke="#ab767e" vector-effect="non-scaling-stroke" d="
  M 71.96 97.23
  Q 74.25 95.33 69.79 94.77"
/>
<path stroke="#5d4c70" vector-effect="non-scaling-stroke" d="
  M 69.79 94.77
  Q 73.08 91.23 69.02 89.97
  Q 67.24 89.42 61.53 88.15"
/>
<path stroke="#5d4c70" vector-effect="non-scaling-stroke" d="
  M 61.78 87.20
  L 68.55 85.88"
/>
<path stroke="#c19698" vector-effect="non-scaling-stroke" d="
  M 69.09 85.70
  Q 68.82 87.13 69.16 88.07
  A 0.39 0.38 43.3 0 0 69.89 88.05
  L 70.93 84.58
  A 0.57 0.56 16.6 0 0 70.54 83.87
  Q 69.84 83.68 69.23 84.23"
/>
<path stroke="#91b7b6" vector-effect="non-scaling-stroke" d="
  M 152.82 106.73
  Q 148.82 112.72 144.97 118.73
  Q 138.79 128.38 133.09 138.30
  Q 132.74 138.90 132.78 139.42
  Q 132.82 140.14 133.17 140.57"
/>
<path stroke="#a7c5c3" vector-effect="non-scaling-stroke" d="
  M 110.80 154.33
  L 121.06 136.60"
/>
<path stroke="#a7c5c3" vector-effect="non-scaling-stroke" d="
  M 134.20 114.46
  L 146.07 114.25
  A 1.37 1.36 66.4 0 0 146.99 111.90
  Q 143.57 108.61 138.74 109.17
  Q 138.00 109.26 137.72 108.61"
/>
<path stroke="#91b7b6" vector-effect="non-scaling-stroke" d="
  M 141.31 102.47
  L 154.23 101.28
  A 0.55 0.55 0.0 0 0 154.58 100.36
  Q 152.32 97.99 149.14 97.01
  Q 148.66 96.86 148.42 96.42
  Q 147.22 94.20 147.80 92.16"
/>
<path stroke="#80596f" vector-effect="non-scaling-stroke" d="
  M 69.79 94.77
  Q 67.89 94.07 67.88 93.56"
/>
<path stroke="#af686f" vector-effect="non-scaling-stroke" d="
  M 71.96 97.23
  Q 70.70 100.21 71.02 104.05
  A 0.56 0.55 89.1 0 1 70.45 104.65
  C 68.93 104.58 65.86 103.12 64.74 104.51
  Q 64.47 104.86 64.05 105.02
  L 61.80 105.92"
/>
<path stroke="#e6c1b8" vector-effect="non-scaling-stroke" d="
  M 61.80 105.92
  Q 64.24 103.34 63.85 99.57
  Q 63.80 99.07 63.36 98.81
  C 59.20 96.30 54.65 100.41 57.24 104.50
  Q 58.23 106.07 60.25 106.23"
/>
<path stroke="#af686f" vector-effect="non-scaling-stroke" d="
  M 60.25 106.23
  Q 60.44 110.94 65.28 108.66
  A 0.18 0.15 -82.4 0 0 65.36 108.59
  L 67.00 106.28
  A 1.87 1.87 0.0 0 1 70.39 107.31
  Q 70.49 110.65 68.45 113.88"
/>
<path stroke="#80596f" vector-effect="non-scaling-stroke" d="
  M 56.2023 102.7029
  A 1.67 0.55 12.2 0 0 54.6862 101.8124
  A 1.67 0.55 12.2 0 0 52.9377 101.9971
  A 1.67 0.55 12.2 0 0 54.4538 102.8876
  A 1.67 0.55 12.2 0 0 56.2023 102.7029"
/>
<path stroke="#7d6988" vector-effect="non-scaling-stroke" d="
  M 75.67 98.02
  Q 76.17 99.01 76.79 99.17
  Q 77.11 99.25 76.92 99.51
  C 74.73 102.62 74.94 107.52 74.92 111.18"
/>
<path stroke="#715c7b" vector-effect="non-scaling-stroke" d="
  M 74.92 111.18
  Q 73.80 114.30 72.16 115.92"
/>
<path stroke="#7d6988" vector-effect="non-scaling-stroke" d="
  M 72.16 115.92
  Q 70.90 118.63 70.52 116.91"
/>
<path stroke="#c7a6aa" vector-effect="non-scaling-stroke" d="
  M 60.25 106.23
  L 61.80 105.92"
/>
<path stroke="#4e5988" vector-effect="non-scaling-stroke" d="
  M 87.91 98.91
  L 77.96 98.67"
/>
<path stroke="#9fb5c4" vector-effect="non-scaling-stroke" d="
  M 99.70 150.38
  Q 99.35 153.97 100.92 157.77"
/>
<path stroke="#9fb5c4" vector-effect="non-scaling-stroke" d="
  M 90.66 160.21
  Q 89.80 157.88 90.87 156.09"
/>
<path stroke="#b4c1d1" vector-effect="non-scaling-stroke" d="
  M 90.87 156.09
  L 83.52 103.24
  A 0.69 0.69 0.0 0 0 82.15 103.28
  L 78.93 139.77"
/>
<path stroke="#9fb5c4" vector-effect="non-scaling-stroke" d="
  M 78.93 139.77
  L 77.54 156.36"
/>
<path stroke="#5d77a2" vector-effect="non-scaling-stroke" d="
  M 77.54 156.36
  Q 78.60 157.80 76.78 156.55
  A 1.13 1.11 -34.7 0 0 75.86 156.39
  Q 74.17 156.83 72.54 156.25
  Q 72.14 156.10 72.10 155.68
  C 71.69 150.96 72.87 145.85 73.00 141.98
  C 73.29 133.70 73.47 125.30 74.54 117.08
  Q 74.92 114.13 74.92 111.18"
/>
<path stroke="#9896aa" vector-effect="non-scaling-stroke" d="
  M 59.7651 104.0021
  A 1.93 1.67 95.2 0 0 61.6031 102.2314
  A 1.93 1.67 95.2 0 0 60.1149 100.1579
  A 1.93 1.67 95.2 0 0 58.2769 101.9286
  A 1.93 1.67 95.2 0 0 59.7651 104.0021"
/>
<path stroke="#88a7b7" vector-effect="non-scaling-stroke" d="
  M 20.60 125.72
  Q 25.63 131.57 26.45 139.28"
/>
<path stroke="#9fb5c4" vector-effect="non-scaling-stroke" d="
  M 9.99 118.57
  Q 10.57 113.30 10.33 110.00
  Q 10.30 109.60 9.84 109.51
  A 0.50 0.50 0.0 0 0 9.25 109.93
  L 8.49 115.64"
/>
<path stroke="#91b7b6" vector-effect="non-scaling-stroke" d="
  M 46.64 111.82
  Q 41.70 109.77 38.43 105.56
  Q 38.02 105.04 37.47 105.40
  L 36.94 105.73
  Q 36.32 106.13 36.46 105.41
  L 36.58 104.78"
/>
<path stroke="#e9f2e6" vector-effect="non-scaling-stroke" d="
  M 90.87 156.09
  Q 84.61 147.55 80.77 140.75
  Q 79.97 139.35 78.93 139.77"
/>
<path stroke="#a7c5c3" vector-effect="non-scaling-stroke" d="
  M 51.67 119.98
  L 67.95 148.08
  A 0.23 0.23 0.0 0 0 68.38 147.98
  L 68.89 141.53"
/>
<path stroke="#7294ae" vector-effect="non-scaling-stroke" d="
  M 68.89 141.53
  Q 69.31 149.26 68.19 156.79"
/>
<path stroke="#6687a1" vector-effect="non-scaling-stroke" d="
  M 68.19 156.79
  Q 67.38 160.21 66.03 159.88"
/>
<path stroke="#91b7b6" vector-effect="non-scaling-stroke" d="
  M 61.76 158.56
  Q 62.31 158.01 61.92 157.25
  Q 53.02 140.40 44.86 126.92"
/>
<path stroke="#93a8b7" vector-effect="non-scaling-stroke" d="
  M 77.54 156.36
  L 79.96 161.00"
/>
<path stroke="#5d77a2" vector-effect="non-scaling-stroke" d="
  M 68.19 156.79
  L 70.07 156.23
  Q 70.61 156.07 70.65 155.50
  Q 71.59 139.36 73.05 123.25
  Q 73.40 119.41 72.16 115.92"
/>
<path stroke="#9fb5c4" vector-effect="non-scaling-stroke" d="
  M 69.94 126.54
  L 68.89 141.53"
/>
<path stroke="#768fa2" vector-effect="non-scaling-stroke" d="
  M 36.06 147.12
  Q 36.45 141.28 35.98 135.75
  Q 35.95 135.41 35.66 135.33
  A 0.41 0.41 0.0 0 0 35.15 135.71
  L 34.93 146.23"
/>
</g>
<path fill="#fefef3" d="
  M 64.73 0.00
  L 94.96 0.00
  Q 107.91 3.92 120.70 10.77
  Q 114.88 13.83 112.06 18.33
  Q 109.23 21.77 108.00 26.62
  Q 106.93 29.30 107.05 31.97
  L 107.79 38.56
  Q 107.86 39.17 107.43 39.60
  L 98.46 48.68
  A 0.23 0.23 0.0 0 0 98.68 49.06
  L 110.66 45.98
  A 0.81 0.79 63.8 0 1 111.51 46.28
  Q 114.68 50.52 119.47 53.40
  Q 120.47 54.39 123.53 54.58
  Q 124.84 55.99 128.06 56.39
  Q 143.76 58.36 153.60 45.86
  Q 155.34 50.30 156.69 54.87
  Q 157.22 56.71 158.94 60.35
  Q 160.99 64.71 161.00 69.89
  L 161.00 89.00
  L 158.53 83.87
  L 156.06 78.75
  Q 155.75 78.10 155.40 78.72
  L 149.21 89.73
  Q 148.64 90.02 147.80 92.16
  Q 137.13 84.09 130.00 93.95
  C 129.23 95.03 129.05 96.41 128.78 97.70
  Q 128.67 98.24 128.17 98.00
  Q 126.44 97.16 124.64 97.88
  A 1.01 0.99 50.5 0 1 123.72 97.78
  Q 114.90 91.84 109.33 100.84
  A 0.97 0.97 0.0 0 0 110.15 102.32
  L 141.31 102.47
  L 137.72 108.61
  Q 136.52 109.22 135.75 109.17
  C 130.57 108.81 124.21 108.24 122.33 113.28
  A 0.99 0.99 0.0 0 0 123.27 114.62
  L 134.20 114.46
  L 121.06 136.60
  L 115.85 126.57
  A 0.78 0.78 0.0 0 0 114.49 126.52
  L 99.70 150.38
  L 93.91 99.34
  Q 95.23 98.65 95.14 97.25
  Q 94.54 87.23 93.79 76.54
  C 97.55 82.16 99.92 90.41 108.82 84.92
  Q 113.82 81.83 119.25 77.74
  Q 119.85 77.29 119.26 76.12
  Q 120.28 75.95 121.39 75.07
  Q 121.84 74.71 122.40 74.83
  L 134.47 77.36
  A 1.34 1.32 -70.1 0 0 135.92 76.67
  Q 137.83 72.99 135.16 70.43
  C 133.11 68.46 128.35 68.86 125.48 68.46
  Q 124.43 68.31 125.21 67.60
  L 127.28 65.67
  Q 127.61 65.37 127.77 64.94
  Q 128.15 63.89 127.23 63.17
  A 0.97 0.97 0.0 0 0 126.03 63.17
  L 120.85 67.25
  A 1.30 1.29 79.8 0 0 120.41 67.89
  C 119.18 71.61 116.64 71.00 113.80 72.65
  L 105.66 77.66
  A 0.64 0.63 60.0 0 1 104.77 77.42
  Q 99.58 67.80 94.31 58.01
  C 93.00 55.57 91.17 54.29 89.06 52.70
  A 0.61 0.61 0.0 0 0 88.09 53.05
  Q 87.62 55.09 87.68 57.25
  Q 88.24 76.72 87.64 96.21
  L 78.24 96.22
  Q 78.29 95.94 77.96 96.07
  L 77.74 84.58
  L 78.02 81.78
  Q 82.25 76.56 78.31 70.68
  Q 77.99 70.22 77.99 69.66
  L 77.99 52.57
  Q 77.99 51.90 78.43 52.40
  Q 81.52 55.90 85.27 53.12
  Q 85.71 52.79 85.60 52.26
  L 85.07 49.46
  Q 84.94 49.17 85.09 48.52
  L 85.29 47.97
  Q 85.45 47.53 85.89 47.37
  C 93.79 44.46 91.80 35.24 91.56 28.55
  Q 92.48 27.01 93.92 24.84
  Q 95.51 22.47 95.67 20.88
  Q 96.03 17.40 92.88 15.27
  A 0.73 0.72 23.6 0 0 91.77 15.70
  C 89.50 25.07 74.73 14.60 71.86 24.90
  Q 71.72 25.40 71.30 25.72
  Q 66.62 29.27 69.85 34.70
  Q 67.85 41.41 74.46 40.93
  A 1.04 1.02 -21.8 0 1 75.30 41.28
  Q 78.87 45.43 77.63 50.90
  Q 77.54 51.27 77.02 51.45
  L 74.86 51.32
  C 67.12 51.15 58.86 50.69 60.64 61.59
  Q 51.33 72.43 47.83 76.02
  Q 44.45 79.49 45.07 83.16
  C 47.26 89.19 54.95 86.11 59.41 85.22
  C 59.84 85.14 60.40 85.34 60.69 85.59
  Q 61.00 86.55 61.78 87.20
  Q 61.90 87.26 62.01 87.55
  Q 62.09 87.79 62.00 87.94
  Q 61.87 88.14 61.53 88.15
  C 58.77 86.98 57.45 89.40 57.55 91.70
  Q 57.57 92.15 57.99 92.29
  Q 59.94 92.95 60.91 91.37
  Q 61.21 90.89 61.76 91.00
  L 67.29 92.11
  Q 67.87 92.23 67.95 92.81
  Q 68.00 93.15 67.88 93.56
  Q 67.85 93.85 67.68 93.99
  Q 67.56 94.09 67.29 94.05
  C 63.91 93.51 60.57 93.63 57.30 92.65
  C 54.69 91.86 53.54 93.81 53.15 96.19
  Q 52.35 101.00 52.10 105.90
  C 51.91 109.70 53.42 110.66 56.76 111.44
  Q 62.34 112.74 68.45 113.88
  L 69.95 113.99
  Q 70.49 114.03 70.50 114.57
  L 70.52 116.91
  L 69.94 126.54
  Q 69.95 128.36 69.23 129.46
  A 0.54 0.54 0.0 0 1 68.31 129.43
  L 58.64 113.05
  A 1.68 1.68 0.0 0 0 55.74 113.05
  L 51.67 119.98
  L 46.64 111.82
  L 40.16 100.19
  A 0.36 0.36 0.0 0 0 39.51 100.23
  L 37.54 104.89
  Q 37.31 105.43 36.82 105.11
  Q 36.66 105.01 36.58 104.78
  Q 36.52 104.66 36.47 104.53
  L 36.54 62.97
  L 48.84 62.76
  A 0.55 0.55 0.0 0 0 49.38 62.22
  L 49.49 55.03
  A 0.62 0.62 0.0 0 0 48.89 54.40
  Q 43.33 54.20 37.97 54.45
  Q 37.42 54.47 37.15 54.23
  Q 36.82 53.93 36.68 53.43
  L 36.43 51.39
  A 0.83 0.83 0.0 0 0 34.85 51.16
  Q 34.40 52.19 34.57 53.71
  L 34.31 54.06
  A 1.03 1.02 -71.3 0 1 33.53 54.45
  Q 28.62 54.56 23.67 54.45
  C 19.65 54.36 17.30 55.32 15.30 58.61
  Q 15.06 59.01 15.37 59.36
  C 17.50 61.65 19.30 62.75 22.65 62.72
  Q 27.94 62.69 33.19 62.77
  Q 33.92 62.78 34.21 63.09
  Q 34.57 63.49 34.59 64.24
  L 34.58 66.96
  Q 30.25 68.32 26.26 70.10
  C 22.93 71.59 21.20 74.45 19.13 77.27
  Q 18.70 77.85 19.31 78.23
  L 24.18 81.25
  A 0.54 0.53 -37.8 0 0 24.63 81.30
  L 34.71 77.86
  L 34.99 110.40
  L 44.86 126.92
  L 35.03 122.18
  A 0.69 0.68 28.7 0 0 34.16 122.43
  L 31.58 126.56
  A 0.66 0.66 0.0 0 1 30.46 126.55
  L 27.94 122.49
  Q 27.63 121.99 27.10 122.26
  L 20.60 125.72
  Q 19.27 124.06 19.94 121.85
  L 29.46 106.64
  Q 30.07 105.66 29.55 104.61
  Q 20.80 87.02 12.08 68.94
  Q 10.69 66.06 7.43 64.99
  Q 6.88 64.81 6.70 65.36
  L 5.32 69.56
  Q 3.20 67.42 4.13 65.76
  C 5.02 59.53 2.79 55.23 6.33 48.85
  Q 9.11 43.84 11.81 38.78
  L 61.92 39.12
  A 0.46 0.46 0.0 0 0 62.34 38.47
  Q 60.89 35.38 57.52 34.94
  A 0.72 0.71 5.1 0 1 56.89 34.19
  Q 57.75 19.91 44.52 15.27
  Q 41.29 14.14 33.23 15.46
  Q 39.93 11.39 42.72 10.21
  Q 54.15 5.39 64.73 0.00
  Z
  M 67.53 10.83
  A 0.25 0.25 0.0 0 1 67.56 10.38
  L 73.80 7.89
  A 0.51 0.51 0.0 0 0 73.58 6.90
  Q 69.30 7.14 65.16 9.21
  Q 64.60 9.49 63.39 9.57
  A 1.71 1.68 56.2 0 1 62.57 9.40
  Q 60.26 8.24 57.61 7.95
  A 0.99 0.98 -32.1 0 0 57.17 9.86
  L 60.64 11.06
  A 0.37 0.37 0.0 0 1 60.76 11.68
  L 59.59 12.74
  A 0.65 0.64 -76.9 0 0 60.26 13.82
  L 64.15 12.26
  A 0.58 0.57 41.5 0 1 64.54 12.24
  L 71.02 14.07
  A 0.68 0.67 -68.7 0 0 71.80 13.72
  L 72.93 11.49
  A 0.36 0.35 89.8 0 0 72.45 11.01
  Q 70.05 12.27 67.53 10.83
  Z
  M 14.73 44.56
  Q 14.43 45.16 14.85 45.60
  A 0.48 0.44 -9.2 0 0 15.05 45.73
  Q 16.08 46.09 16.34 45.01
  A 0.67 0.66 -87.3 0 0 15.60 44.19
  L 15.11 44.27
  A 0.49 0.49 0.0 0 0 14.73 44.56
  Z
  M 159.5499 69.3304
  A 0.60 0.60 0.0 0 0 158.9478 68.7325
  L 143.2079 68.7875
  A 0.60 0.60 0.0 0 0 142.6100 69.3896
  L 142.6101 69.4296
  A 0.60 0.60 0.0 0 0 143.2122 70.0275
  L 158.9521 69.9725
  A 0.60 0.60 0.0 0 0 159.5500 69.3704
  L 159.5499 69.3304
  Z
  M 107.65 126.40
  A 2.93 2.93 0.0 0 0 104.72 123.47
  A 2.93 2.93 0.0 0 0 101.79 126.40
  A 2.93 2.93 0.0 0 0 104.72 129.33
  A 2.93 2.93 0.0 0 0 107.65 126.40
  Z"
/>
<path fill="#455484" d="
  M 67.53 10.83
  Q 70.05 12.27 72.45 11.01
  A 0.36 0.35 89.8 0 1 72.93 11.49
  L 71.80 13.72
  A 0.68 0.67 -68.7 0 1 71.02 14.07
  L 64.54 12.24
  A 0.58 0.57 41.5 0 0 64.15 12.26
  L 60.26 13.82
  A 0.65 0.64 -76.9 0 1 59.59 12.74
  L 60.76 11.68
  A 0.37 0.37 0.0 0 0 60.64 11.06
  L 57.17 9.86
  A 0.99 0.98 -32.1 0 1 57.61 7.95
  Q 60.26 8.24 62.57 9.40
  A 1.71 1.68 56.2 0 0 63.39 9.57
  Q 64.60 9.49 65.16 9.21
  Q 69.30 7.14 73.58 6.90
  A 0.51 0.51 0.0 0 1 73.80 7.89
  L 67.56 10.38
  A 0.25 0.25 0.0 0 0 67.53 10.83
  Z"
/>
<path fill="#6984ae" d="
  M 120.70 10.77
  Q 127.93 14.86 134.63 21.46
  C 129.81 24.08 126.82 30.13 132.36 33.90
  A 1.49 1.46 -27.8 0 0 133.23 34.16
  C 134.88 34.14 136.79 33.76 138.16 34.54
  C 140.42 35.83 140.21 39.33 140.04 42.00
  Q 139.07 42.79 138.87 45.35
  L 138.52 43.75
  Q 138.41 43.21 137.87 43.31
  Q 129.86 44.80 121.47 44.34
  Q 121.86 43.65 121.56 42.75
  Q 123.16 40.57 123.16 38.37
  A 0.75 0.75 0.0 0 0 122.58 37.63
  Q 118.85 36.74 116.38 34.16
  C 114.33 32.02 111.39 30.74 110.19 34.46
  L 109.71 36.29
  L 109.28 32.99
  Q 109.45 33.02 109.58 32.99
  A 0.16 0.15 -18.8 0 0 109.69 32.77
  L 108.56 30.52
  A 0.36 0.36 0.0 0 0 107.88 30.61
  Q 107.82 30.94 107.90 31.50
  Q 107.32 31.58 107.05 31.97
  Q 106.93 29.30 108.00 26.62
  L 109.68 27.19
  A 0.51 0.51 0.0 0 0 110.34 26.80
  Q 111.02 23.01 113.77 20.34
  A 1.14 1.14 0.0 0 1 114.60 20.03
  L 116.36 20.12
  A 0.37 0.37 0.0 0 0 116.53 19.42
  L 115.92 19.15
  A 0.65 0.64 -47.6 0 1 115.87 18.00
  Q 116.88 17.42 117.36 17.89
  Q 117.72 18.25 117.77 18.83
  Q 117.79 19.09 118.04 18.99
  L 118.44 18.83
  A 0.51 0.51 0.0 0 0 118.75 18.25
  Q 118.34 16.50 118.99 14.75
  A 0.62 0.61 -7.8 0 0 118.05 14.04
  L 112.06 18.33
  Q 114.88 13.83 120.70 10.77
  Z
  M 110.87 28.63
  Q 110.53 28.12 109.64 28.43
  A 0.61 0.61 0.0 0 0 109.74 29.61
  L 112.74 30.10
  A 0.56 0.56 0.0 0 0 112.98 29.01
  Q 112.11 28.76 110.87 28.63
  Z"
/>
<path fill="#d4e6d9" d="
  M 108.00 26.62
  Q 109.23 21.77 112.06 18.33
  L 118.05 14.04
  A 0.62 0.61 -7.8 0 1 118.99 14.75
  Q 118.34 16.50 118.75 18.25
  A 0.51 0.51 0.0 0 1 118.44 18.83
  L 118.04 18.99
  Q 117.79 19.09 117.77 18.83
  Q 117.72 18.25 117.36 17.89
  Q 116.88 17.42 115.87 18.00
  A 0.65 0.64 -47.6 0 0 115.92 19.15
  L 116.53 19.42
  A 0.37 0.37 0.0 0 1 116.36 20.12
  L 114.60 20.03
  A 1.14 1.14 0.0 0 0 113.77 20.34
  Q 111.02 23.01 110.34 26.80
  A 0.51 0.51 0.0 0 1 109.68 27.19
  L 108.00 26.62
  Z"
/>
<path fill="#a7c9bf" d="
  M 11.81 38.78
  L 16.80 31.59
  Q 18.81 34.74 22.46 33.48
  Q 22.92 33.32 22.92 32.84
  Q 22.98 27.59 25.00 22.42
  Q 28.88 18.05 33.23 15.46
  Q 41.29 14.14 44.52 15.27
  Q 57.75 19.91 56.89 34.19
  A 0.72 0.71 5.1 0 0 57.52 34.94
  Q 60.89 35.38 62.34 38.47
  A 0.46 0.46 0.0 0 1 61.92 39.12
  L 11.81 38.78
  Z
  M 45.91 29.03
  A 5.87 5.87 0.0 0 0 40.04 23.16
  A 5.87 5.87 0.0 0 0 34.17 29.03
  A 5.87 5.87 0.0 0 0 40.04 34.90
  A 5.87 5.87 0.0 0 0 45.91 29.03
  Z"
/>
<path fill="#6984ae" d="
  M 91.56 28.55
  Q 83.53 28.47 76.13 26.70
  Q 75.50 26.55 75.80 27.13
  Q 77.67 30.79 75.84 34.59
  Q 75.59 35.10 75.09 34.85
  Q 72.38 33.48 69.85 34.70
  Q 66.62 29.27 71.30 25.72
  Q 71.72 25.40 71.86 24.90
  C 74.73 14.60 89.50 25.07 91.77 15.70
  A 0.73 0.72 23.6 0 1 92.88 15.27
  Q 96.03 17.40 95.67 20.88
  Q 95.51 22.47 93.92 24.84
  Q 92.48 27.01 91.56 28.55
  Z"
/>
<path fill="#d4e6d9" d="
  M 134.63 21.46
  Q 141.93 28.06 147.01 36.02
  L 140.04 42.00
  C 140.21 39.33 140.42 35.83 138.16 34.54
  C 136.79 33.76 134.88 34.14 133.23 34.16
  A 1.49 1.46 -27.8 0 1 132.36 33.90
  C 126.82 30.13 129.81 24.08 134.63 21.46
  Z"
/>
<path fill="#fefef3" d="
  M 25.00 22.42
  Q 22.98 27.59 22.92 32.84
  Q 22.92 33.32 22.46 33.48
  Q 18.81 34.74 16.80 31.59
  L 25.00 22.42
  Z"
/>
<circle fill="#fefef3" cx="40.04" cy="29.03" r="5.87"/>
<path fill="#fac3b1" d="
  M 91.56 28.55
  C 91.80 35.24 93.79 44.46 85.89 47.37
  Q 85.45 47.53 85.29 47.97
  L 85.09 48.52
  L 85.07 47.97
  A 0.49 0.48 -83.2 0 0 84.73 47.53
  L 78.78 45.59
  Q 78.40 45.47 78.27 45.84
  Q 78.01 46.61 78.52 47.09
  C 79.70 48.19 83.00 50.91 85.07 49.46
  L 85.60 52.26
  Q 85.71 52.79 85.27 53.12
  Q 81.52 55.90 78.43 52.40
  Q 77.99 51.90 77.99 52.57
  L 77.99 69.66
  Q 77.99 70.22 78.31 70.68
  Q 82.25 76.56 78.02 81.78
  L 77.87 80.89
  Q 77.80 80.42 77.31 80.49
  L 67.73 82.00
  Q 65.85 80.52 66.98 77.35
  L 68.45 76.92
  Q 69.52 77.45 69.70 76.78
  Q 70.69 72.99 71.60 70.87
  Q 71.88 70.22 72.27 70.03
  Q 72.89 69.73 73.50 70.31
  L 73.44 71.10
  A 0.52 0.52 0.0 0 0 73.96 71.65
  Q 75.14 71.65 76.21 71.19
  Q 76.68 71.52 77.20 71.28
  Q 77.66 71.08 77.66 70.57
  L 77.92 52.35
  Q 77.92 51.80 77.45 51.51
  Q 77.20 51.36 77.02 51.45
  Q 77.54 51.27 77.63 50.90
  Q 78.87 45.43 75.30 41.28
  A 1.04 1.02 -21.8 0 0 74.46 40.93
  Q 67.85 41.41 69.85 34.70
  Q 72.38 33.48 75.09 34.85
  Q 75.59 35.10 75.84 34.59
  Q 77.67 30.79 75.80 27.13
  Q 75.50 26.55 76.13 26.70
  Q 83.53 28.47 91.56 28.55
  Z
  M 81.75 28.87
  Q 80.26 28.60 79.45 29.76
  A 0.40 0.40 0.0 0 0 79.87 30.38
  L 81.78 29.94
  A 0.55 0.54 43.6 0 0 81.75 28.87
  Z
  M 89.7178 29.5876
  A 1.39 0.59 3.2 0 0 88.3629 28.9209
  A 1.39 0.59 3.2 0 0 86.9422 29.4324
  A 1.39 0.59 3.2 0 0 88.2971 30.0991
  A 1.39 0.59 3.2 0 0 89.7178 29.5876
  Z
  M 80.54 31.16
  L 80.46 34.24
  A 0.24 0.24 0.0 0 0 80.69 34.49
  L 81.13 34.50
  A 1.07 0.86 -88.5 0 0 82.02 33.45
  L 82.06 32.03
  A 1.07 0.86 -88.5 0 0 81.23 30.94
  L 80.79 30.93
  A 0.24 0.24 0.0 0 0 80.54 31.16
  Z
  M 88.4852 34.6242
  A 1.81 0.79 85.4 0 0 89.1275 32.7566
  A 1.81 0.79 85.4 0 0 88.1948 31.0158
  A 1.81 0.79 85.4 0 0 87.5525 32.8834
  A 1.81 0.79 85.4 0 0 88.4852 34.6242
  Z
  M 85.93 34.98
  Q 84.84 35.63 86.13 35.96
  A 0.70 0.69 87.5 0 0 86.96 35.05
  L 85.81 31.85
  A 0.29 0.28 -53.0 0 0 85.26 31.93
  Q 85.16 33.23 86.05 34.18
  Q 86.49 34.66 85.93 34.98
  Z
  M 74.4435 37.7749
  A 1.39 0.95 17.8 0 0 73.4104 36.4455
  A 1.39 0.95 17.8 0 0 71.7965 36.9251
  A 1.39 0.95 17.8 0 0 72.8296 38.2545
  A 1.39 0.95 17.8 0 0 74.4435 37.7749
  Z
  M 80.53 37.64
  Q 80.61 37.58 80.08 37.56
  Q 79.65 37.54 79.68 37.97
  L 79.96 41.63
  A 0.66 0.66 0.0 0 0 80.84 42.20
  Q 83.71 41.14 85.03 43.78
  Q 85.29 44.28 85.85 44.22
  C 88.86 43.87 89.40 40.06 88.75 37.70
  Q 88.69 37.49 88.47 37.48
  Q 87.63 37.46 88.38 37.36
  Q 84.55 36.13 80.53 37.64
  Z"
/>
<path fill="#a7c9bf" d="
  M 110.87 28.63
  Q 112.11 28.76 112.98 29.01
  A 0.56 0.56 0.0 0 1 112.74 30.10
  L 109.74 29.61
  A 0.61 0.61 0.0 0 1 109.64 28.43
  Q 110.53 28.12 110.87 28.63
  Z"
/>
<path fill="#322e61" d="
  M 81.75 28.87
  A 0.55 0.54 43.6 0 1 81.78 29.94
  L 79.87 30.38
  A 0.40 0.40 0.0 0 1 79.45 29.76
  Q 80.26 28.60 81.75 28.87
  Z"
/>
<ellipse fill="#322e61" cx="0.00" cy="0.00" transform="translate(88.33,29.51) rotate(3.2)" rx="1.39" ry="0.59"/>
<path fill="#d4e6d9" d="
  M 109.28 32.99
  L 107.90 31.50
  Q 107.82 30.94 107.88 30.61
  A 0.36 0.36 0.0 0 1 108.56 30.52
  L 109.69 32.77
  A 0.16 0.15 -18.8 0 1 109.58 32.99
  Q 109.45 33.02 109.28 32.99
  Z"
/>
<path fill="#322e61" d="
  M 80.54 31.16
  A 0.24 0.24 0.0 0 1 80.79 30.93
  L 81.23 30.94
  A 1.07 0.86 -88.5 0 1 82.06 32.03
  L 82.02 33.45
  A 1.07 0.86 -88.5 0 1 81.13 34.50
  L 80.69 34.49
  A 0.24 0.24 0.0 0 1 80.46 34.24
  L 80.54 31.16
  Z"
/>
<ellipse fill="#322e61" cx="0.00" cy="0.00" transform="translate(88.34,32.82) rotate(85.4)" rx="1.81" ry="0.79"/>
<path fill="#516a95" d="
  M 107.90 31.50
  L 109.28 32.99
  L 109.71 36.29
  C 109.59 39.08 110.04 40.85 112.19 42.96
  C 114.42 45.17 115.44 47.74 117.41 50.18
  Q 118.59 51.64 119.47 53.40
  Q 114.68 50.52 111.51 46.28
  A 0.81 0.79 63.8 0 0 110.66 45.98
  L 98.68 49.06
  A 0.23 0.23 0.0 0 1 98.46 48.68
  L 107.43 39.60
  Q 107.86 39.17 107.79 38.56
  L 107.05 31.97
  Q 107.32 31.58 107.90 31.50
  Z"
/>
<path fill="#ce837c" d="
  M 86.05 34.18
  Q 85.16 33.23 85.26 31.93
  A 0.29 0.28 -53.0 0 1 85.81 31.85
  L 86.96 35.05
  A 0.70 0.69 87.5 0 1 86.13 35.96
  Q 84.84 35.63 85.93 34.98
  Q 86.49 34.66 86.05 34.18
  Z"
/>
<path fill="#d4e6d9" d="
  M 121.56 42.75
  Q 121.22 43.93 119.49 43.15
  C 116.56 41.83 111.34 38.39 110.19 34.46
  C 111.39 30.74 114.33 32.02 116.38 34.16
  Q 118.85 36.74 122.58 37.63
  A 0.75 0.75 0.0 0 1 123.16 38.37
  Q 123.16 40.57 121.56 42.75
  Z"
/>
<path fill="#8bb1b6" d="
  M 110.19 34.46
  C 111.34 38.39 116.56 41.83 119.49 43.15
  Q 121.22 43.93 121.56 42.75
  Q 121.86 43.65 121.47 44.34
  Q 120.37 49.27 123.53 54.58
  Q 120.47 54.39 119.47 53.40
  Q 118.59 51.64 117.41 50.18
  C 115.44 47.74 114.42 45.17 112.19 42.96
  C 110.04 40.85 109.59 39.08 109.71 36.29
  L 110.19 34.46
  Z"
/>
<ellipse fill="#904d61" cx="0.00" cy="0.00" transform="translate(73.12,37.35) rotate(17.8)" rx="1.39" ry="0.95"/>
<path fill="#8bb1b6" d="
  M 147.01 36.02
  L 152.92 44.88
  L 150.42 45.50
  Q 149.55 45.72 149.95 44.92
  L 151.06 42.72
  Q 151.16 42.53 151.06 42.34
  Q 150.99 42.22 150.88 42.11
  Q 150.56 41.80 150.26 42.12
  Q 148.13 44.34 145.36 48.58
  Q 143.71 51.11 140.37 51.19
  Q 139.84 51.20 139.75 50.68
  L 138.87 45.35
  Q 139.07 42.79 140.04 42.00
  L 147.01 36.02
  Z"
/>
<path fill="#fefef3" d="
  M 88.38 37.36
  Q 84.97 40.14 80.53 37.64
  Q 84.55 36.13 88.38 37.36
  Z"
/>
<path fill="#322e61" d="
  M 80.53 37.64
  Q 84.97 40.14 88.38 37.36
  Q 87.63 37.46 88.47 37.48
  Q 88.69 37.49 88.75 37.70
  C 89.40 40.06 88.86 43.87 85.85 44.22
  Q 85.29 44.28 85.03 43.78
  Q 83.71 41.14 80.84 42.20
  A 0.66 0.66 0.0 0 1 79.96 41.63
  L 79.68 37.97
  Q 79.65 37.54 80.08 37.56
  Q 80.61 37.58 80.53 37.64
  Z"
/>
<path fill="#455484" d="
  M 152.92 44.88
  Q 153.23 45.91 153.60 45.86
  Q 143.76 58.36 128.06 56.39
  Q 124.84 55.99 123.53 54.58
  Q 120.37 49.27 121.47 44.34
  Q 129.86 44.80 137.87 43.31
  Q 138.41 43.21 138.52 43.75
  L 138.87 45.35
  L 139.75 50.68
  Q 139.84 51.20 140.37 51.19
  Q 143.71 51.11 145.36 48.58
  Q 148.13 44.34 150.26 42.12
  Q 150.56 41.80 150.88 42.11
  Q 150.99 42.22 151.06 42.34
  Q 151.16 42.53 151.06 42.72
  L 149.95 44.92
  Q 149.55 45.72 150.42 45.50
  L 152.92 44.88
  Z"
/>
<path fill="#7aa4ad" d="
  M 15.11 44.27
  L 15.60 44.19
  A 0.67 0.66 -87.3 0 1 16.34 45.01
  Q 16.08 46.09 15.05 45.73
  A 0.48 0.44 -9.2 0 1 14.85 45.60
  Q 14.43 45.16 14.73 44.56
  A 0.49 0.49 0.0 0 1 15.11 44.27
  Z"
/>
<path fill="#904d61" d="
  M 85.09 48.52
  Q 84.94 49.17 85.07 49.46
  C 83.00 50.91 79.70 48.19 78.52 47.09
  Q 78.01 46.61 78.27 45.84
  Q 78.40 45.47 78.78 45.59
  L 84.73 47.53
  A 0.49 0.48 -83.2 0 1 85.07 47.97
  L 85.09 48.52
  Z"
/>
<path fill="#516a95" d="
  M 36.68 53.43
  Q 36.36 53.89 35.99 54.17
  Q 35.21 54.77 34.57 53.71
  Q 34.40 52.19 34.85 51.16
  A 0.83 0.83 0.0 0 1 36.43 51.39
  L 36.68 53.43
  Z"
/>
<path fill="#6984ae" d="
  M 74.86 51.32
  L 72.49 52.78
  Q 72.00 53.09 72.28 53.59
  Q 75.92 60.18 76.79 69.00
  Q 76.95 70.69 76.21 71.19
  Q 75.14 71.65 73.96 71.65
  A 0.52 0.52 0.0 0 1 73.44 71.10
  L 73.50 70.31
  Q 73.55 61.87 69.80 55.42
  A 2.08 2.07 -39.1 0 0 66.46 55.08
  L 60.64 61.59
  C 58.86 50.69 67.12 51.15 74.86 51.32
  Z"
/>
<path fill="#e5b499" d="
  M 74.86 51.32
  L 77.02 51.45
  Q 77.20 51.36 77.45 51.51
  Q 77.92 51.80 77.92 52.35
  L 77.66 70.57
  Q 77.66 71.08 77.20 71.28
  Q 76.68 71.52 76.21 71.19
  Q 76.95 70.69 76.79 69.00
  Q 75.92 60.18 72.28 53.59
  Q 72.00 53.09 72.49 52.78
  L 74.86 51.32
  Z"
/>
<path fill="#e5b499" d="
  M 113.80 72.65
  C 114.94 72.79 115.23 72.04 116.18 72.02
  Q 117.29 72.00 117.69 73.21
  Q 116.19 73.58 118.03 75.18
  Q 118.49 75.59 118.13 76.08
  L 117.28 77.24
  Q 116.79 77.91 116.28 77.26
  Q 115.34 76.07 114.82 74.66
  Q 114.74 74.45 114.62 74.38
  Q 114.45 74.27 114.24 74.33
  Q 113.65 74.49 113.92 75.05
  L 115.06 77.42
  A 0.63 0.62 -28.9 0 1 114.82 78.22
  C 110.85 80.67 104.22 86.26 99.97 82.04
  Q 97.50 79.59 94.98 74.32
  C 93.25 70.70 93.89 65.99 93.67 61.99
  Q 93.66 61.85 93.60 61.76
  Q 93.51 61.63 93.37 61.58
  A 0.23 0.22 11.9 0 0 93.06 61.78
  Q 92.69 69.52 93.79 76.54
  Q 94.54 87.23 95.14 97.25
  Q 95.23 98.65 93.91 99.34
  Q 92.27 98.51 87.91 98.91
  Q 88.21 96.57 87.64 96.21
  Q 88.24 76.72 87.68 57.25
  Q 87.62 55.09 88.09 53.05
  A 0.61 0.61 0.0 0 1 89.06 52.70
  C 91.17 54.29 93.00 55.57 94.31 58.01
  Q 99.58 67.80 104.77 77.42
  A 0.64 0.63 60.0 0 0 105.66 77.66
  L 113.80 72.65
  Z"
/>
<path fill="#97bcba" d="
  M 36.68 53.43
  Q 36.82 53.93 37.15 54.23
  Q 37.42 54.47 37.97 54.45
  Q 43.33 54.20 48.89 54.40
  A 0.62 0.62 0.0 0 1 49.49 55.03
  L 49.38 62.22
  A 0.55 0.55 0.0 0 1 48.84 62.76
  L 36.54 62.97
  L 35.84 62.67
  Q 35.36 62.46 35.02 62.85
  Q 34.60 63.32 34.59 64.24
  Q 34.57 63.49 34.21 63.09
  Q 33.92 62.78 33.19 62.77
  Q 27.94 62.69 22.65 62.72
  C 19.30 62.75 17.50 61.65 15.37 59.36
  Q 15.06 59.01 15.30 58.61
  C 17.30 55.32 19.65 54.36 23.67 54.45
  Q 28.62 54.56 33.53 54.45
  A 1.03 1.02 -71.3 0 0 34.31 54.06
  L 34.57 53.71
  Q 35.21 54.77 35.99 54.17
  Q 36.36 53.89 36.68 53.43
  Z"
/>
<path fill="#e5b499" d="
  M 73.50 70.31
  Q 72.89 69.73 72.27 70.03
  Q 71.88 70.22 71.60 70.87
  Q 70.69 72.99 69.70 76.78
  Q 69.52 77.45 68.45 76.92
  L 68.63 64.31
  A 0.29 0.28 -23.8 0 0 68.13 64.12
  L 56.83 76.50
  Q 56.50 76.86 56.03 76.97
  L 53.98 77.47
  A 0.22 0.22 0.0 0 0 54.04 77.91
  L 56.24 77.81
  Q 56.78 77.79 57.16 77.41
  L 60.12 74.46
  Q 60.87 73.71 60.83 74.77
  Q 60.73 77.54 62.34 76.79
  Q 63.66 78.60 63.25 81.77
  Q 63.18 82.27 62.68 82.33
  Q 56.87 83.02 51.26 84.01
  Q 48.58 84.49 45.07 83.16
  Q 44.45 79.49 47.83 76.02
  Q 51.33 72.43 60.64 61.59
  L 66.46 55.08
  A 2.08 2.07 -39.1 0 1 69.80 55.42
  Q 73.55 61.87 73.50 70.31
  Z"
/>
<path fill="#a25b5f" d="
  M 117.69 73.21
  L 119.26 76.12
  Q 119.85 77.29 119.25 77.74
  Q 113.82 81.83 108.82 84.92
  C 99.92 90.41 97.55 82.16 93.79 76.54
  Q 92.69 69.52 93.06 61.78
  A 0.23 0.22 11.9 0 1 93.37 61.58
  Q 93.51 61.63 93.60 61.76
  Q 93.66 61.85 93.67 61.99
  C 93.89 65.99 93.25 70.70 94.98 74.32
  Q 97.50 79.59 99.97 82.04
  C 104.22 86.26 110.85 80.67 114.82 78.22
  A 0.63 0.62 -28.9 0 0 115.06 77.42
  L 113.92 75.05
  Q 113.65 74.49 114.24 74.33
  Q 114.45 74.27 114.62 74.38
  Q 114.74 74.45 114.82 74.66
  Q 115.34 76.07 116.28 77.26
  Q 116.79 77.91 117.28 77.24
  L 118.13 76.08
  Q 118.49 75.59 118.03 75.18
  Q 116.19 73.58 117.69 73.21
  Z"
/>
<path fill="#516a95" d="
  M 36.54 62.97
  L 36.47 104.53
  Q 36.10 107.36 36.11 110.25
  Q 36.11 111.29 34.99 110.40
  L 34.71 77.86
  L 34.58 66.96
  L 34.59 64.24
  Q 34.60 63.32 35.02 62.85
  Q 35.36 62.46 35.84 62.67
  L 36.54 62.97
  Z"
/>
<path fill="#fac3b1" d="
  M 119.26 76.12
  L 117.69 73.21
  Q 117.29 72.00 116.18 72.02
  C 115.23 72.04 114.94 72.79 113.80 72.65
  C 116.64 71.00 119.18 71.61 120.41 67.89
  A 1.30 1.29 79.8 0 1 120.85 67.25
  L 126.03 63.17
  A 0.97 0.97 0.0 0 1 127.23 63.17
  Q 128.15 63.89 127.77 64.94
  Q 127.61 65.37 127.28 65.67
  L 125.21 67.60
  Q 124.43 68.31 125.48 68.46
  C 128.35 68.86 133.11 68.46 135.16 70.43
  Q 137.83 72.99 135.92 76.67
  A 1.34 1.32 -70.1 0 1 134.47 77.36
  L 122.40 74.83
  Q 121.84 74.71 121.39 75.07
  Q 120.28 75.95 119.26 76.12
  Z"
/>
<path fill="#516a95" d="
  M 68.45 76.92
  L 66.98 77.35
  Q 65.09 76.10 63.95 76.72
  L 62.34 76.79
  Q 60.73 77.54 60.83 74.77
  Q 60.87 73.71 60.12 74.46
  L 57.16 77.41
  Q 56.78 77.79 56.24 77.81
  L 54.04 77.91
  A 0.22 0.22 0.0 0 1 53.98 77.47
  L 56.03 76.97
  Q 56.50 76.86 56.83 76.50
  L 68.13 64.12
  A 0.29 0.28 -23.8 0 1 68.63 64.31
  L 68.45 76.92
  Z"
/>
<path fill="#7aa4ad" d="
  M 19.94 121.85
  Q 18.96 116.07 19.24 110.32
  Q 19.42 106.67 18.55 104.83
  Q 16.81 101.09 12.80 99.55
  L 5.32 69.56
  L 6.70 65.36
  Q 6.88 64.81 7.43 64.99
  Q 10.69 66.06 12.08 68.94
  Q 20.80 87.02 29.55 104.61
  Q 30.07 105.66 29.46 106.64
  L 19.94 121.85
  Z"
/>
<path fill="#a7c9bf" d="
  M 4.13 65.76
  Q 3.20 67.42 5.32 69.56
  L 12.80 99.55
  Q 7.68 99.03 3.15 101.05
  Q -1.76 83.48 1.65 65.77
  Q 1.74 65.32 2.19 65.40
  L 4.13 65.76
  Z"
/>
<path fill="#8bb1b6" d="
  M 34.58 66.96
  L 34.71 77.86
  L 24.63 81.30
  A 0.54 0.53 -37.8 0 1 24.18 81.25
  L 19.31 78.23
  Q 18.70 77.85 19.13 77.27
  C 21.20 74.45 22.93 71.59 26.26 70.10
  Q 30.25 68.32 34.58 66.96
  Z"
/>
<rect fill="#97bcba" x="-8.47" y="-0.62" transform="translate(151.08,69.38) rotate(-0.2)" width="16.94" height="1.24" rx="0.60"/>
<path fill="#e5b499" d="
  M 66.98 77.35
  Q 65.85 80.52 67.73 82.00
  Q 67.88 81.91 68.04 81.82
  L 64.61 82.25
  Q 63.93 82.33 63.93 81.64
  L 63.95 76.72
  Q 65.09 76.10 66.98 77.35
  Z"
/>
<path fill="#a25b5f" d="
  M 63.95 76.72
  L 63.93 81.64
  Q 63.93 82.33 64.61 82.25
  L 68.04 81.82
  Q 68.78 81.92 69.19 82.29
  A 0.93 0.92 27.6 0 1 69.48 83.20
  L 69.23 84.23
  L 69.09 85.70
  Q 68.45 85.50 68.55 85.88
  L 68.91 83.06
  Q 69.00 82.41 68.35 82.33
  L 67.34 82.21
  A 0.44 0.44 0.0 0 0 66.86 82.73
  Q 66.99 83.44 66.60 83.81
  C 65.79 84.60 62.43 84.20 60.69 85.59
  C 60.40 85.34 59.84 85.14 59.41 85.22
  C 54.95 86.11 47.26 89.19 45.07 83.16
  Q 48.58 84.49 51.26 84.01
  Q 56.87 83.02 62.68 82.33
  Q 63.18 82.27 63.25 81.77
  Q 63.66 78.60 62.34 76.79
  L 63.95 76.72
  Z"
/>
<path fill="#a7c9bf" d="
  M 158.53 83.87
  Q 157.55 84.22 155.57 86.08
  Q 154.12 87.45 149.21 89.73
  L 155.40 78.72
  Q 155.75 78.10 156.06 78.75
  L 158.53 83.87
  Z"
/>
<path fill="#88697f" d="
  M 78.02 81.78
  L 77.74 84.58
  L 73.93 95.05
  Q 73.73 95.58 74.21 95.91
  Q 75.75 96.96 77.96 96.07
  Q 78.29 95.94 78.24 96.22
  L 77.96 98.67
  Q 77.63 98.25 77.60 97.68
  Q 77.57 97.23 77.12 97.17
  Q 76.21 97.04 75.67 98.02
  Q 75.41 97.13 74.80 96.51
  Q 74.41 96.10 73.89 96.34
  L 71.96 97.23
  Q 74.25 95.33 69.79 94.77
  Q 73.08 91.23 69.02 89.97
  Q 67.24 89.42 61.53 88.15
  Q 61.87 88.14 62.00 87.94
  Q 62.09 87.79 62.01 87.55
  Q 61.90 87.26 61.78 87.20
  L 68.55 85.88
  Q 68.45 85.50 69.09 85.70
  Q 68.82 87.13 69.16 88.07
  A 0.39 0.38 43.3 0 0 69.89 88.05
  L 70.93 84.58
  A 0.57 0.56 16.6 0 0 70.54 83.87
  Q 69.84 83.68 69.23 84.23
  L 69.48 83.20
  A 0.93 0.92 27.6 0 0 69.19 82.29
  Q 68.78 81.92 68.04 81.82
  Q 67.88 81.91 67.73 82.00
  L 77.31 80.49
  Q 77.80 80.42 77.87 80.89
  L 78.02 81.78
  Z"
/>
<path fill="#322e61" d="
  M 68.55 85.88
  L 61.78 87.20
  Q 61.00 86.55 60.69 85.59
  C 62.43 84.20 65.79 84.60 66.60 83.81
  Q 66.99 83.44 66.86 82.73
  A 0.44 0.44 0.0 0 1 67.34 82.21
  L 68.35 82.33
  Q 69.00 82.41 68.91 83.06
  L 68.55 85.88
  Z"
/>
<path fill="#fac3b1" d="
  M 69.09 85.70
  L 69.23 84.23
  Q 69.84 83.68 70.54 83.87
  A 0.57 0.56 16.6 0 1 70.93 84.58
  L 69.89 88.05
  A 0.39 0.38 43.3 0 1 69.16 88.07
  Q 68.82 87.13 69.09 85.70
  Z"
/>
<path fill="#7aa4ad" d="
  M 158.53 83.87
  L 161.00 89.00
  L 161.00 90.73
  Q 160.23 94.83 159.41 96.43
  Q 157.57 100.03 152.82 106.73
  Q 148.82 112.72 144.97 118.73
  Q 138.79 128.38 133.09 138.30
  Q 132.74 138.90 132.78 139.42
  Q 132.82 140.14 133.17 140.57
  Q 123.34 149.56 110.80 154.33
  L 121.06 136.60
  L 134.20 114.46
  L 146.07 114.25
  A 1.37 1.36 66.4 0 0 146.99 111.90
  Q 143.57 108.61 138.74 109.17
  Q 138.00 109.26 137.72 108.61
  L 141.31 102.47
  L 154.23 101.28
  A 0.55 0.55 0.0 0 0 154.58 100.36
  Q 152.32 97.99 149.14 97.01
  Q 148.66 96.86 148.42 96.42
  Q 147.22 94.20 147.80 92.16
  Q 148.64 90.02 149.21 89.73
  Q 154.12 87.45 155.57 86.08
  Q 157.55 84.22 158.53 83.87
  Z"
/>
<path fill="#e5b499" d="
  M 77.74 84.58
  L 77.96 96.07
  Q 75.75 96.96 74.21 95.91
  Q 73.73 95.58 73.93 95.05
  L 77.74 84.58
  Z"
/>
<path fill="#322e61" d="
  M 61.53 88.15
  Q 67.24 89.42 69.02 89.97
  Q 73.08 91.23 69.79 94.77
  Q 67.89 94.07 67.88 93.56
  Q 68.00 93.15 67.95 92.81
  Q 67.87 92.23 67.29 92.11
  L 61.76 91.00
  Q 61.21 90.89 60.91 91.37
  Q 59.94 92.95 57.99 92.29
  Q 57.57 92.15 57.55 91.70
  C 57.45 89.40 58.77 86.98 61.53 88.15
  Z"
/>
<path fill="#a7c9bf" d="
  M 147.80 92.16
  Q 147.22 94.20 148.42 96.42
  Q 148.66 96.86 149.14 97.01
  Q 152.32 97.99 154.58 100.36
  A 0.55 0.55 0.0 0 1 154.23 101.28
  L 141.31 102.47
  L 110.15 102.32
  A 0.97 0.97 0.0 0 1 109.33 100.84
  Q 114.90 91.84 123.72 97.78
  A 1.01 0.99 50.5 0 0 124.64 97.88
  Q 126.44 97.16 128.17 98.00
  Q 128.67 98.24 128.78 97.70
  C 129.05 96.41 129.23 95.03 130.00 93.95
  Q 137.13 84.09 147.80 92.16
  Z"
/>
<path fill="#ce837c" d="
  M 67.88 93.56
  Q 67.89 94.07 69.79 94.77
  Q 74.25 95.33 71.96 97.23
  Q 70.70 100.21 71.02 104.05
  A 0.56 0.55 89.1 0 1 70.45 104.65
  C 68.93 104.58 65.86 103.12 64.74 104.51
  Q 64.47 104.86 64.05 105.02
  L 61.80 105.92
  Q 64.24 103.34 63.85 99.57
  Q 63.80 99.07 63.36 98.81
  C 59.20 96.30 54.65 100.41 57.24 104.50
  Q 58.23 106.07 60.25 106.23
  Q 60.44 110.94 65.28 108.66
  A 0.18 0.15 -82.4 0 0 65.36 108.59
  L 67.00 106.28
  A 1.87 1.87 0.0 0 1 70.39 107.31
  Q 70.49 110.65 68.45 113.88
  Q 62.34 112.74 56.76 111.44
  C 53.42 110.66 51.91 109.70 52.10 105.90
  Q 52.35 101.00 53.15 96.19
  C 53.54 93.81 54.69 91.86 57.30 92.65
  C 60.57 93.63 63.91 93.51 67.29 94.05
  Q 67.56 94.09 67.68 93.99
  Q 67.85 93.85 67.88 93.56
  Z
  M 56.2023 102.7029
  A 1.67 0.55 12.2 0 0 54.6862 101.8124
  A 1.67 0.55 12.2 0 0 52.9377 101.9971
  A 1.67 0.55 12.2 0 0 54.4538 102.8876
  A 1.67 0.55 12.2 0 0 56.2023 102.7029
  Z"
/>
<path fill="#904d61" d="
  M 75.67 98.02
  Q 76.17 99.01 76.79 99.17
  Q 77.11 99.25 76.92 99.51
  C 74.73 102.62 74.94 107.52 74.92 111.18
  Q 73.80 114.30 72.16 115.92
  Q 70.90 118.63 70.52 116.91
  L 70.50 114.57
  Q 70.49 114.03 69.95 113.99
  L 68.45 113.88
  Q 70.49 110.65 70.39 107.31
  A 1.87 1.87 0.0 0 0 67.00 106.28
  L 65.36 108.59
  A 0.18 0.15 -82.4 0 1 65.28 108.66
  Q 60.44 110.94 60.25 106.23
  L 61.80 105.92
  L 64.05 105.02
  Q 64.47 104.86 64.74 104.51
  C 65.86 103.12 68.93 104.58 70.45 104.65
  A 0.56 0.55 89.1 0 0 71.02 104.05
  Q 70.70 100.21 71.96 97.23
  L 73.89 96.34
  Q 74.41 96.10 74.80 96.51
  Q 75.41 97.13 75.67 98.02
  Z"
/>
<path fill="#322e61" d="
  M 78.24 96.22
  L 87.64 96.21
  Q 88.21 96.57 87.91 98.91
  L 77.96 98.67
  L 78.24 96.22
  Z"
/>
<path fill="#6984ae" d="
  M 77.96 98.67
  L 87.91 98.91
  Q 92.27 98.51 93.91 99.34
  L 99.70 150.38
  Q 99.35 153.97 100.92 157.77
  Q 96.00 159.96 90.66 160.21
  Q 89.80 157.88 90.87 156.09
  L 83.52 103.24
  A 0.69 0.69 0.0 0 0 82.15 103.28
  L 78.93 139.77
  L 77.54 156.36
  Q 78.60 157.80 76.78 156.55
  A 1.13 1.11 -34.7 0 0 75.86 156.39
  Q 74.17 156.83 72.54 156.25
  Q 72.14 156.10 72.10 155.68
  C 71.69 150.96 72.87 145.85 73.00 141.98
  C 73.29 133.70 73.47 125.30 74.54 117.08
  Q 74.92 114.13 74.92 111.18
  C 74.94 107.52 74.73 102.62 76.92 99.51
  Q 77.11 99.25 76.79 99.17
  Q 76.17 99.01 75.67 98.02
  Q 76.21 97.04 77.12 97.17
  Q 77.57 97.23 77.60 97.68
  Q 77.63 98.25 77.96 98.67
  Z"
/>
<path fill="#fefef3" d="
  M 61.80 105.92
  L 60.25 106.23
  Q 58.23 106.07 57.24 104.50
  C 54.65 100.41 59.20 96.30 63.36 98.81
  Q 63.80 99.07 63.85 99.57
  Q 64.24 103.34 61.80 105.92
  Z
  M 59.7651 104.0021
  A 1.93 1.67 95.2 0 0 61.6031 102.2314
  A 1.93 1.67 95.2 0 0 60.1149 100.1579
  A 1.93 1.67 95.2 0 0 58.2769 101.9286
  A 1.93 1.67 95.2 0 0 59.7651 104.0021
  Z"
/>
<path fill="#6984ae" d="
  M 12.80 99.55
  Q 16.81 101.09 18.55 104.83
  Q 19.42 106.67 19.24 110.32
  Q 18.96 116.07 19.94 121.85
  Q 19.27 124.06 20.60 125.72
  Q 25.63 131.57 26.45 139.28
  Q 16.19 129.85 9.99 118.57
  Q 10.57 113.30 10.33 110.00
  Q 10.30 109.60 9.84 109.51
  A 0.50 0.50 0.0 0 0 9.25 109.93
  L 8.49 115.64
  Q 5.01 108.41 3.15 101.05
  Q 7.68 99.03 12.80 99.55
  Z"
/>
<path fill="#a7c9bf" d="
  M 46.64 111.82
  Q 41.70 109.77 38.43 105.56
  Q 38.02 105.04 37.47 105.40
  L 36.94 105.73
  Q 36.32 106.13 36.46 105.41
  L 36.58 104.78
  Q 36.66 105.01 36.82 105.11
  Q 37.31 105.43 37.54 104.89
  L 39.51 100.23
  A 0.36 0.36 0.0 0 1 40.16 100.19
  L 46.64 111.82
  Z"
/>
<ellipse fill="#322e61" cx="0.00" cy="0.00" transform="translate(59.94,102.08) rotate(95.2)" rx="1.93" ry="1.67"/>
<ellipse fill="#322e61" cx="0.00" cy="0.00" transform="translate(54.57,102.35) rotate(12.2)" rx="1.67" ry="0.55"/>
<path fill="#fefef3" d="
  M 90.87 156.09
  Q 84.61 147.55 80.77 140.75
  Q 79.97 139.35 78.93 139.77
  L 82.15 103.28
  A 0.69 0.69 0.0 0 1 83.52 103.24
  L 90.87 156.09
  Z"
/>
<path fill="#7aa4ad" d="
  M 36.47 104.53
  Q 36.52 104.66 36.58 104.78
  L 36.46 105.41
  Q 36.32 106.13 36.94 105.73
  L 37.47 105.40
  Q 38.02 105.04 38.43 105.56
  Q 41.70 109.77 46.64 111.82
  L 51.67 119.98
  L 67.95 148.08
  A 0.23 0.23 0.0 0 0 68.38 147.98
  L 68.89 141.53
  Q 69.31 149.26 68.19 156.79
  Q 67.38 160.21 66.03 159.88
  L 61.76 158.56
  Q 62.31 158.01 61.92 157.25
  Q 53.02 140.40 44.86 126.92
  L 34.99 110.40
  Q 36.11 111.29 36.11 110.25
  Q 36.10 107.36 36.47 104.53
  Z"
/>
<path fill="#a7c9bf" d="
  M 152.82 106.73
  Q 153.14 108.83 155.15 108.86
  Q 155.70 108.87 155.49 109.37
  Q 147.79 127.76 133.17 140.57
  Q 132.82 140.14 132.78 139.42
  Q 132.74 138.90 133.09 138.30
  Q 138.79 128.38 144.97 118.73
  Q 148.82 112.72 152.82 106.73
  Z"
/>
<path fill="#d4e6d9" d="
  M 137.72 108.61
  Q 138.00 109.26 138.74 109.17
  Q 143.57 108.61 146.99 111.90
  A 1.37 1.36 66.4 0 1 146.07 114.25
  L 134.20 114.46
  L 123.27 114.62
  A 0.99 0.99 0.0 0 1 122.33 113.28
  C 124.21 108.24 130.57 108.81 135.75 109.17
  Q 136.52 109.22 137.72 108.61
  Z"
/>
<path fill="#d4e6d9" d="
  M 9.99 118.57
  L 8.49 115.64
  L 9.25 109.93
  A 0.50 0.50 0.0 0 1 9.84 109.51
  Q 10.30 109.60 10.33 110.00
  Q 10.57 113.30 9.99 118.57
  Z"
/>
<path fill="#516a95" d="
  M 74.92 111.18
  Q 74.92 114.13 74.54 117.08
  C 73.47 125.30 73.29 133.70 73.00 141.98
  C 72.87 145.85 71.69 150.96 72.10 155.68
  Q 72.14 156.10 72.54 156.25
  Q 74.17 156.83 75.86 156.39
  A 1.13 1.11 -34.7 0 1 76.78 156.55
  Q 78.60 157.80 77.54 156.36
  L 79.96 161.00
  L 73.01 161.00
  L 66.03 159.88
  Q 67.38 160.21 68.19 156.79
  L 70.07 156.23
  Q 70.61 156.07 70.65 155.50
  Q 71.59 139.36 73.05 123.25
  Q 73.40 119.41 72.16 115.92
  Q 73.80 114.30 74.92 111.18
  Z"
/>
<path fill="#d4e6d9" d="
  M 69.94 126.54
  L 68.89 141.53
  L 68.38 147.98
  A 0.23 0.23 0.0 0 1 67.95 148.08
  L 51.67 119.98
  L 55.74 113.05
  A 1.68 1.68 0.0 0 1 58.64 113.05
  L 68.31 129.43
  A 0.54 0.54 0.0 0 0 69.23 129.46
  Q 69.95 128.36 69.94 126.54
  Z"
/>
<path fill="#6984ae" d="
  M 72.16 115.92
  Q 73.40 119.41 73.05 123.25
  Q 71.59 139.36 70.65 155.50
  Q 70.61 156.07 70.07 156.23
  L 68.19 156.79
  Q 69.31 149.26 68.89 141.53
  L 69.94 126.54
  L 70.52 116.91
  Q 70.90 118.63 72.16 115.92
  Z"
/>
<path fill="#a7c9bf" d="
  M 44.86 126.92
  Q 53.02 140.40 61.92 157.25
  Q 62.31 158.01 61.76 158.56
  Q 48.08 154.41 36.06 147.12
  Q 36.45 141.28 35.98 135.75
  Q 35.95 135.41 35.66 135.33
  A 0.41 0.41 0.0 0 0 35.15 135.71
  L 34.93 146.23
  L 26.45 139.28
  Q 25.63 131.57 20.60 125.72
  L 27.10 122.26
  Q 27.63 121.99 27.94 122.49
  L 30.46 126.55
  A 0.66 0.66 0.0 0 0 31.58 126.56
  L 34.16 122.43
  A 0.69 0.68 28.7 0 1 35.03 122.18
  L 44.86 126.92
  Z"
/>
<circle fill="#d4e6d9" cx="104.72" cy="126.40" r="2.93"/>
<path fill="#d4e6d9" d="
  M 121.06 136.60
  L 110.80 154.33
  L 100.92 157.77
  Q 99.35 153.97 99.70 150.38
  L 114.49 126.52
  A 0.78 0.78 0.0 0 1 115.85 126.57
  L 121.06 136.60
  Z"
/>
<path fill="#455484" d="
  M 36.06 147.12
  L 34.93 146.23
  L 35.15 135.71
  A 0.41 0.41 0.0 0 1 35.66 135.33
  Q 35.95 135.41 35.98 135.75
  Q 36.45 141.28 36.06 147.12
  Z"
/>
<path fill="#d4e6d9" d="
  M 78.93 139.77
  Q 79.97 139.35 80.77 140.75
  Q 84.61 147.55 90.87 156.09
  Q 89.80 157.88 90.66 160.21
  L 86.36 161.00
  L 79.96 161.00
  L 77.54 156.36
  L 78.93 139.77
  Z"
/>
</svg>
