<svg width="639" height="573" viewBox="0 0 639 573" fill="none" xmlns="http://www.w3.org/2000/svg">
<path d="M159.487 571.314C150.759 568.968 145.373 565.845 138.681 559.248C124.424 545.194 120.761 526.076 129.066 509.074C132.906 501.214 142.4 491.549 149.917 487.849C162.618 481.596 178.269 481.599 190.977 487.855C198.931 491.771 207.643 500.984 211.814 509.892C217.641 522.336 216.404 539.089 208.765 551.191C198.366 567.662 177.541 576.167 159.487 571.314ZM179.941 549.943C190.565 545.37 197.012 532.629 194.339 521.489C191.882 511.246 178.568 501.961 168.039 503.148C158.486 504.225 149.627 511.473 146.764 520.554C143.516 530.86 148.046 542.3 157.751 548.3C165.404 553.032 171.686 553.497 179.941 549.943ZM28.7474 570.902C27.1591 570.262 25.9805 568.141 24.4755 563.215C23.3323 559.473 17.3577 540.949 11.1985 522.049L0 487.687L2.33116 485.799C5.44523 483.278 16.5156 483.103 18.5683 485.543C19.3232 486.441 22.8658 495.718 26.4408 506.16C30.0158 516.602 33.3908 525.205 33.9408 525.279C34.4908 525.352 37.8658 516.807 41.4408 506.29C45.0158 495.774 48.5584 486.436 49.3132 485.54C50.2932 484.377 52.3589 483.912 56.5375 483.912C61.9198 483.912 62.5003 484.132 63.7711 486.662C64.8705 488.85 72.5948 512.388 75.9133 523.662C77.4854 529.003 79.3917 525.676 85.4089 507.09C88.7603 496.738 92.189 487.288 93.0283 486.09C94.3423 484.214 95.5015 483.912 101.375 483.912C109.717 483.912 110.975 484.998 110.092 491.44C109.551 495.386 102.748 516.932 89.2609 557.412C87.0619 564.012 84.7977 569.974 84.2293 570.662C83.1172 572.007 75.6507 572.355 73.8405 571.146C72.0277 569.936 70.4013 566.205 65.9257 552.988C58.1998 530.173 56.2432 525.514 55.1841 527.406C54.6618 528.339 51.1079 538.154 47.2867 549.216C43.4654 560.279 39.8568 569.911 39.2674 570.621C38.0587 572.077 32.0635 572.237 28.7474 570.902ZM244.908 569.47L242.467 567.029L242.876 526.763C243.337 481.461 242.948 483.527 250.906 484.117C255.023 484.423 257.24 486.64 292.645 525.874C295.232 528.741 297.836 530.786 298.431 530.418C299.168 529.962 299.422 522.89 299.227 508.26C298.891 483.04 298.524 483.912 309.477 483.912C320.127 483.912 319.441 480.907 319.441 527.518C319.441 572.668 319.56 571.912 312.466 571.912C310.342 571.912 307.904 571.643 307.048 571.315C306.193 570.986 296.223 560.861 284.895 548.815C273.566 536.768 263.83 526.912 263.261 526.912C262.558 526.912 262.436 533.435 262.882 547.162C263.244 558.299 263.18 567.907 262.74 568.512C261.154 570.695 257.476 571.912 252.461 571.912C248.375 571.912 246.86 571.422 244.908 569.47ZM357.096 570.083C355.613 568.445 355.441 564.036 355.441 527.738C355.441 489.757 355.555 487.118 357.27 485.567C358.821 484.163 361.685 483.912 376.133 483.912C385.502 483.912 395.59 484.371 398.55 484.932C411.038 487.301 422.958 495.842 428.674 506.517C440.401 528.418 432.635 554.002 410.712 565.687C401.473 570.611 394.244 571.88 375.346 571.897C360.527 571.91 358.574 571.716 357.096 570.083ZM397.112 550.788C414.294 545.48 419.404 521.866 405.93 510.037C400.102 504.92 396.736 503.912 385.473 503.912H375.441V527.845V551.779L378.191 552.095C382.651 552.609 393.688 551.846 397.112 550.788ZM470.663 570.355L468.441 568.798V528.01C468.441 489.765 468.555 487.119 470.27 485.567C471.882 484.108 475.498 483.912 500.835 483.912C518.732 483.912 530.302 484.302 531.506 484.947C533.168 485.836 533.441 487.095 533.441 493.888C533.441 499.114 533.017 502.068 532.191 502.603C531.503 503.048 521.491 503.637 509.941 503.912L488.941 504.412L488.641 510.749C488.195 520.172 488.128 520.137 505.474 519.744C516.806 519.487 520.501 519.723 521.783 520.784C523.973 522.597 524.038 531.613 521.884 534.689C520.395 536.815 519.686 536.912 505.584 536.912C495.45 536.912 490.466 537.287 489.641 538.112C488.396 539.356 487.983 548.556 489.048 551.33C489.574 552.702 492.401 552.912 510.348 552.912C525.109 552.912 531.385 553.256 532.241 554.112C532.954 554.825 533.441 558.26 533.441 562.577C533.441 568.736 533.146 569.999 531.506 570.877C530.304 571.52 518.854 571.912 501.229 571.912C477.195 571.912 472.548 571.675 470.663 570.355ZM568.997 569.689C567.651 567.767 567.441 562.027 567.441 527.212V486.958L569.897 485.348C572.005 483.967 575.376 483.787 593.647 484.075C614.179 484.4 615.138 484.505 620.441 487.021C632.167 492.584 638.982 503.094 638.852 515.412C638.81 519.402 638.102 523.977 637.206 526.051C635.066 531.008 629.113 537.402 625.18 538.968C623.398 539.677 621.794 540.364 621.615 540.494C621.435 540.624 624.923 546.243 629.365 552.981C633.807 559.718 637.441 566.268 637.441 567.536C637.441 570.485 634.731 571.912 629.131 571.912C619.897 571.912 619.601 571.7 609.798 558.085L600.673 545.412L594.057 545.747L587.441 546.082V557.342C587.441 571.228 586.959 571.912 577.169 571.912C571.467 571.912 570.339 571.605 568.997 569.689ZM614.14 525.088C620.443 521.671 621.303 513.916 616.02 508.147L612.599 504.412L600.02 504.08L587.441 503.749V515.29V526.831L595.691 527.121C605.111 527.453 610.968 526.808 614.14 525.088ZM316.441 437.269C290.866 434.808 261.936 426.719 240.941 416.16C195.963 393.538 160.821 355.068 142.78 308.702C131.913 280.775 126.78 245.958 129.298 217.262C133.662 167.542 152.568 125.38 185.89 91.0593C207.552 68.7476 231.862 52.7852 261.779 41.2286C271.148 37.6094 294.261 31.7531 305.941 30.0388C348.56 23.7837 396.171 33.0115 434.527 54.9612C450.274 63.9726 473.441 82.1889 473.441 85.5599C473.441 87.2566 462.456 97.9118 460.707 97.9118C459.972 97.9118 456.225 94.7645 452.378 90.9179C444.108 82.6475 432.043 73.9118 428.891 73.9118C425.048 73.9118 425.028 76.9032 428.847 80.8341C432.912 85.0192 434.54 88.7596 433.731 92.0545C432.841 95.6799 431.859 96.4911 425.611 98.7696C418.712 101.285 408.728 109.858 404.707 116.72C400.739 123.491 400.845 131.171 404.986 137.072C406.662 139.459 410.626 143.13 413.797 145.229C417.638 147.773 419.453 149.608 419.238 150.729C419.06 151.655 415.393 154.3 411.089 156.608C401.664 161.663 393.436 167.867 389.402 172.961C384.848 178.71 380.646 188.62 379.32 196.737C376.51 213.931 384.636 231.932 398.217 238.601C403.719 241.303 404.438 241.4 416.797 241.119C431.586 240.783 435.094 241.613 439.348 246.459C443.7 251.415 445.445 258.424 445.419 270.843C445.392 283.592 444.371 286.26 435.47 296.833C428.581 305.017 425.78 310.566 424.277 319.008C422.289 330.181 426.785 337.912 435.271 337.912C441.02 337.912 446.376 335.318 453.954 328.864C457.247 326.06 462.866 322.043 466.441 319.937C472.174 316.561 473.45 315.213 477.257 308.514C480.707 302.443 482.83 300.022 487.828 296.455C494.985 291.348 497.143 287.742 497.803 279.789C498.454 271.944 501.471 266.663 508.353 261.318C516.554 254.95 517.888 251.502 518.962 233.912C520.387 210.545 516.146 184.779 506.724 159.571L501.178 144.731L507.53 138.321C511.024 134.796 514.262 131.912 514.725 131.912C516.639 131.912 525.232 154.465 529.393 170.412C533.968 187.94 535.655 200.818 536.18 222.203C536.884 250.872 534.332 270.552 526.816 294.412C503.764 367.586 438.834 423.442 362.904 435.417C352.991 436.98 325.024 438.095 316.441 437.269ZM341.521 414.578C366.756 403.559 391.37 382.097 409.789 355.05C413.977 348.9 414.363 346.339 411.252 345.352C408.765 344.563 406.118 347.188 398.445 358.048C389.958 370.062 371.657 387.643 357.941 396.959C355.191 398.827 347.565 403.068 340.995 406.383C334.425 409.699 328.892 412.922 328.7 413.546C328.283 414.902 331.096 417.917 332.762 417.9C333.41 417.893 337.352 416.398 341.521 414.578ZM286.271 404.038C287.026 403.559 287.458 401.946 287.271 400.303L286.941 397.412L274.742 397.131C263.035 396.862 262.496 396.94 261.359 399.064C260.344 400.961 260.496 401.538 262.418 403.095C264.261 404.586 266.477 404.909 274.802 404.896C280.378 404.888 285.539 404.502 286.271 404.038ZM317.068 394.259C317.562 392.291 316.892 390.074 314.472 385.672C308.68 375.137 310.267 367.098 319.438 360.509C325.116 356.43 326.864 353.086 326.042 347.874C325.274 342.997 326.904 337.799 330.184 334.664C331.7 333.215 336.867 330.388 341.666 328.381C353.206 323.556 356.441 320.04 356.441 312.327C356.441 304.904 358.206 301.958 365.262 297.603C373.724 292.38 377.441 287.866 377.441 282.811C377.441 274.67 373.635 272.085 359.914 270.91C344.607 269.598 337.601 265.281 330.716 252.916C325.211 243.029 323.538 241.129 315.744 235.913C307.908 230.667 301.032 227.773 289.441 224.84C278.744 222.134 274.706 222.351 267.792 226.004C257.539 231.422 248.44 228.836 245.792 219.752C244.254 214.478 243.242 213.428 238.523 212.21C233.516 210.917 232.494 208.683 235.222 204.994C238.125 201.068 238.028 198.343 234.914 196.302C232.48 194.708 232.198 194.764 227.273 197.825C224.46 199.574 221.483 200.871 220.656 200.708C215.774 199.746 212.951 188.039 216.132 181.949C218.865 176.719 226.062 173.416 234.735 173.414C241.374 173.412 241.697 173.529 245.015 177.147C247.686 180.059 248.441 181.738 248.441 184.762C248.441 190.37 251.242 193.284 259.696 196.475C263.681 197.979 269.515 200.493 272.662 202.061C279.006 205.222 282.585 205.648 284.401 203.46C286.896 200.453 284.493 198.017 273.783 192.693C267.951 189.794 262.454 186.334 261.46 184.936C259.181 181.732 256.441 172.577 256.441 168.165C256.441 163.527 257.768 161.419 263.146 157.517C266.765 154.891 268.632 152.379 271.847 145.815C276.065 137.203 280.4 132.901 284.839 132.922C285.995 132.927 289.311 134.035 292.208 135.384C295.105 136.732 298.124 137.587 298.916 137.283C299.709 136.979 301.484 134.807 302.861 132.458C306.164 126.821 310.146 125.091 315.816 126.831C318.085 127.527 321.608 128.325 323.646 128.605C326.993 129.064 327.416 128.86 328.008 126.5C328.774 123.448 327.366 121.361 323.966 120.508C320.377 119.607 317.659 114.992 316.496 107.825C315.924 104.298 315.452 101.109 315.448 100.739C315.424 98.5263 309.101 93.2603 302.461 89.9218C288.37 82.8373 285.147 78.1706 287.326 68.0093C288.827 61.0124 288.758 60.2293 286.441 57.9118C282.358 53.8294 269.459 56.7804 261.461 63.6264C255.251 68.942 254.941 69.939 254.941 84.5826C254.941 96.2588 254.71 98.0628 252.91 100.479C249.337 105.275 246.932 105.4 242.15 101.04C236.785 96.1483 226.805 89.3798 221.992 87.3689C217.724 85.5854 218.663 85.1036 207.855 94.6227C189.025 111.206 169.274 139.265 164.052 156.851C160.686 168.183 162.247 175.775 171.26 191.912C175.218 198.998 176.418 200.412 178.474 200.412C180.604 200.412 180.983 199.898 181.252 196.649C181.498 193.672 180.502 190.922 176.482 183.489C170.979 173.31 169.541 166.779 172.661 166.133C175.268 165.593 189.816 188.045 191.403 195.058C193.324 203.541 193.458 203.862 196.587 207.426C198.951 210.118 202.76 212.056 215.249 216.92C229.222 222.363 231.51 223.592 236.139 228.137C238.999 230.945 243.724 234.405 246.639 235.827C249.637 237.289 252.58 239.581 253.413 241.103C255.055 244.105 254.916 244.779 249.516 259.912C242.809 278.709 247.494 293.345 263.441 303.412C269.301 307.111 275.635 313.678 277.847 318.348C279.135 321.067 279.981 326.157 280.583 334.814C281.609 349.544 283.456 357.745 287.972 367.615C291.711 375.787 294.205 379.388 303.243 389.662C308.803 395.983 310.055 396.912 313.012 396.912C315.847 396.912 316.512 396.477 317.068 394.259ZM428.869 389.34C429.734 388.476 430.441 387.383 430.441 386.912C430.441 384.303 427.014 382.912 420.619 382.927C411.045 382.948 406.398 385.726 409.968 389.296C412.241 391.569 426.607 391.603 428.869 389.34ZM341.87 378.707C356.159 369.739 377.62 349.836 388.556 335.412C405.43 313.154 416.012 291.66 422.507 266.449C425.507 254.807 425.252 252.51 421.028 253.114C419.572 253.322 418.569 254.622 417.711 257.412C417.035 259.612 414.854 266.812 412.865 273.412C406.065 295.974 395.795 314.617 378.569 335.668C365.854 351.208 353.368 361.947 333.641 374.311C328.73 377.389 327.658 379.263 329.523 381.511C331.302 383.655 335.51 382.7 341.87 378.707ZM261.257 372.662C261.742 368.445 258.776 367.912 234.81 367.912C212.636 367.912 209.441 368.414 209.441 371.897C209.441 375.506 212.174 375.878 236.941 375.641L260.941 375.412L261.257 372.662ZM467.115 360.278C468.352 358.413 468.327 357.941 466.914 356.528C464.504 354.117 438.94 354.15 436.27 356.567C434.136 358.498 433.957 360.028 435.666 361.737C436.547 362.618 440.941 362.885 451.296 362.687C464.733 362.43 465.795 362.269 467.115 360.278ZM261.507 346.877C263.759 345.671 264.045 342.658 262.062 341.013C261.104 340.218 254.625 339.951 240.812 340.14L220.941 340.412L220.614 342.717C219.926 347.567 221.288 347.912 241.129 347.912C251.93 347.912 260.374 347.483 261.507 346.877ZM206.828 333.662C207.631 332.387 207.631 331.437 206.828 330.162C205.886 328.665 203.823 328.371 192.572 328.133C184.63 327.964 178.63 328.275 177.429 328.918C175.219 330.101 174.713 334.444 176.691 335.263C177.378 335.548 184.192 335.698 191.833 335.596C203.853 335.437 205.875 335.176 206.828 333.662ZM224.612 308.257C227.393 305.74 226.921 301.238 223.518 297.835C220.81 295.127 220.046 294.912 213.143 294.912C205.782 294.912 205.684 294.877 205.131 292.113C204.823 290.574 203.356 288.099 201.87 286.613C197.227 281.97 191.031 283.582 188.385 290.122C186.729 294.216 185.791 294.877 181.614 294.896C177.193 294.917 172.441 299.53 172.441 303.803C172.441 309.278 174.966 309.826 200.362 309.872C219.859 309.907 223.022 309.696 224.612 308.257ZM170.901 271.662C170.866 269.225 171.228 268.912 174.068 268.912C177.255 268.912 178.566 267.553 177.686 265.162C177.434 264.474 175.647 263.912 173.717 263.912C170.515 263.912 170.249 263.693 170.684 261.418C171.191 258.765 169.237 256.302 167.485 257.385C166.91 257.74 166.441 259.353 166.441 260.971C166.441 263.544 166.081 263.912 163.563 263.912C159.629 263.912 157.584 266.383 160.31 267.842C161.41 268.43 163.239 268.912 164.375 268.912C166.014 268.912 166.441 269.546 166.441 271.981C166.441 274.593 166.777 275.003 168.691 274.731C170.413 274.487 170.932 273.767 170.901 271.662ZM237.251 253.229C237.654 250.4 236.121 249.639 223.924 246.618C199.446 240.556 177.079 225.681 160.082 204.162C154.085 196.569 152.23 195.569 150.418 198.954C149.492 200.684 150.037 201.993 153.986 207.527C170.442 230.588 198.007 249.204 223.441 254.433C232.714 256.34 236.86 255.978 237.251 253.229ZM361.217 246.694C361.797 244.458 362.797 243.3 364.496 242.899C367.836 242.11 367.626 239.491 364.191 239.095C361.918 238.834 361.441 238.291 361.441 235.968C361.441 232.944 359.187 230.333 357.485 231.385C356.91 231.74 356.441 233.073 356.441 234.348C356.441 236.932 354.938 238.512 351.952 239.066C350.859 239.269 349.819 240.187 349.642 241.105C349.403 242.349 350.167 242.857 352.631 243.094C355.555 243.375 355.977 243.79 356.254 246.662C356.691 251.188 360.047 251.21 361.217 246.694ZM352.254 206.154C352.505 203.558 353.013 202.912 354.804 202.912C356.034 202.912 357.546 202.407 358.163 201.79C359.957 199.995 358.471 197.912 355.397 197.912C352.936 197.912 352.527 197.489 352.254 194.662C352.015 192.183 351.466 191.412 349.941 191.412C348.415 191.412 347.866 192.183 347.627 194.662C347.355 197.489 346.946 197.912 344.484 197.912C341.41 197.912 339.924 199.995 341.719 201.79C342.336 202.407 343.876 202.912 345.141 202.912C347 202.912 347.441 203.455 347.441 205.745C347.441 209.04 348.232 210.096 350.392 209.688C351.327 209.511 352.065 208.11 352.254 206.154ZM323.893 200.502C326.841 195.674 311.911 192.441 307.418 196.935C305.834 198.519 305.619 199.376 306.426 200.885C307.226 202.38 308.747 202.88 313.199 203.112C319.943 203.464 322.459 202.85 323.893 200.502ZM292.251 170.714C292.491 168.645 293.176 167.962 295.251 167.722C299.078 167.28 299.029 163.537 295.191 163.095C292.88 162.83 292.441 162.305 292.441 159.814C292.441 158.018 291.81 156.607 290.84 156.235C288.841 155.468 287.272 157.703 287.769 160.61C288.09 162.497 287.632 162.852 284.542 163.11C281.708 163.348 280.941 163.838 280.941 165.412C280.941 166.937 281.712 167.486 284.191 167.725C286.811 167.978 287.441 168.478 287.441 170.308C287.441 174.833 291.732 175.194 292.251 170.714ZM371.612 168.257C375.375 164.852 372.644 157.754 367.03 156.345C365.734 156.02 362.934 156.237 360.807 156.827C355.102 158.411 354.863 158.307 352.998 153.423C350.718 147.452 347.011 144.558 342.567 145.279C338.511 145.937 335.734 148.274 333.959 152.523C332.681 155.581 332.428 155.687 325.421 156.083C319.029 156.444 317.926 156.808 315.82 159.257C313.262 162.231 312.696 166.767 314.641 168.712C315.515 169.586 323.168 169.912 342.812 169.912C366.506 169.912 370.006 169.711 371.612 168.257ZM372.257 133.653C372.466 131.841 373.161 130.912 374.307 130.912C376.355 130.912 378.441 129.045 378.441 127.212C378.441 126.434 377.236 125.912 375.441 125.912C372.774 125.912 372.441 125.578 372.441 122.912C372.441 120.578 371.996 119.912 370.441 119.912C368.885 119.912 368.441 120.578 368.441 122.912C368.441 125.664 368.156 125.912 365 125.912C361.055 125.912 359.703 127.318 361.53 129.52C362.322 130.473 363.659 130.823 365.117 130.457C367.142 129.949 367.441 130.24 367.441 132.726C367.441 134.295 367.756 135.894 368.142 136.28C369.624 137.761 371.955 136.274 372.257 133.653ZM411.218 93.3551C413.954 91.4385 414.068 89.3176 411.507 87.947C408.602 86.3923 348.207 86.5458 346.641 88.1118C344.9 89.8524 345.17 92.6545 347.191 93.8317C348.271 94.4606 360.44 94.8626 378.968 94.8814C404.561 94.9073 409.324 94.6819 411.218 93.3551ZM330.837 78.3941C332.988 77.3733 335.252 74.76 337.753 70.4119C343.389 60.6126 344 60.4118 368.139 60.4118C383.025 60.4118 388.669 60.0811 389.596 59.1546C392.812 55.9432 383.809 52.8905 360.441 49.2688C346.438 47.0986 314.25 46.7301 310.734 48.6998C303.616 52.687 310.681 73.2399 320.941 78.3927C324.732 80.2966 326.827 80.2973 330.837 78.3941ZM474.759 186.684C474.229 185.984 470.041 178.755 465.452 170.618C459.026 159.223 456.746 155.966 455.525 156.437C451.495 157.994 441.452 159.853 440.027 159.307C437.871 158.479 438.034 155.025 440.503 149.266C441.835 146.159 442.182 144.325 441.482 144.092C437.578 142.791 414.887 127.989 414.612 126.565C414.403 125.48 417.052 121.988 421.662 117.273L429.047 109.719L446.994 112.667L464.941 115.615L486.652 93.5136C507.477 72.3145 508.286 71.3455 506.45 69.7896C505.396 68.8973 495.176 62.3954 483.738 55.3409C472.299 48.2864 454.728 37.423 444.691 31.2002C434.653 24.9773 424.416 18.9021 421.941 17.6996C419.466 16.4971 417.457 15.2654 417.477 14.9625C417.538 14.0421 430.331 4.43504 431.962 4.08413C432.8 3.90392 439.438 5.76408 446.713 8.21782C453.988 10.6716 464.799 14.1593 470.737 15.9684L481.533 19.2576L487.397 13.4551L493.261 7.65261L497.293 10.5322C503.745 15.1391 504.577 19.0642 499.921 22.928C498.484 24.1205 498.861 24.434 503.117 25.5887C513.715 28.4643 512.81 28.6348 519.876 22.4309L526.387 16.7149L529.302 19.0634C530.906 20.355 532.971 22.6545 533.892 24.1734C535.509 26.8392 535.48 27.0473 533.031 30.1734L530.494 33.4118L537.185 35.1064L543.876 36.8011L558.908 22.0412C576.456 4.81197 582.634 0.981637 594.182 0.172337C600.018 -0.236643 601.311 -0.00771916 603.654 1.84856C607.396 4.81416 608.165 9.77438 605.964 16.755C603.255 25.3488 600.302 29.276 584.595 45.17L570.011 59.9282L571.747 72.17C572.701 78.903 573.473 85.518 573.462 86.87C573.442 89.1927 573.684 89.0891 577.86 84.9912C583.06 79.8877 585.135 79.9372 590.321 85.288L593.671 88.744L590.968 92.2871C589.482 94.2359 586.055 97.5161 583.353 99.5765C580.651 101.637 578.441 103.733 578.441 104.235C578.441 106.472 581.95 121.912 582.458 121.912C582.769 121.912 585.012 119.887 587.441 117.412C589.87 114.937 592.406 112.912 593.078 112.912C594.953 112.912 601.441 119.434 601.441 121.32C601.441 122.24 598.066 126.26 593.941 130.253C589.618 134.437 586.441 138.346 586.441 139.477C586.441 140.558 587.783 147.51 589.424 154.927C591.065 162.343 592.415 169.123 592.424 169.991C592.443 171.785 581.612 184.153 580.416 183.704C579.986 183.543 573.562 171.262 566.139 156.412C547.656 119.437 534.176 95.4266 532.315 96.1639C531.971 96.3002 523.421 104.345 513.315 114.041C503.209 123.736 493.478 132.889 491.691 134.379C488.765 136.819 488.441 137.625 488.441 142.449C488.441 147.231 490.574 166.709 491.929 174.293C492.35 176.65 491.789 177.79 488.845 180.567C483.139 185.949 476.414 188.869 474.759 186.684ZM482.755 174.535C483.046 173.777 482.21 168.265 480.898 162.285C479.586 156.305 478.497 150.174 478.477 148.662C478.457 147.149 478.207 145.912 477.921 145.912C477.635 145.912 475.619 147.037 473.441 148.412C471.263 149.787 469.022 150.912 468.461 150.912C466.922 150.912 466.987 151.078 473.577 163.938C479.367 175.239 481.528 177.733 482.755 174.535ZM461.151 144.973C474.801 138.409 478.983 135.424 491.97 122.98C498.036 117.167 517.825 98.2368 535.944 80.9118C593.596 25.7866 596.296 22.8841 598.042 14.1553C598.76 10.5679 596.452 7.91144 592.619 7.91257C591.146 7.913 587.241 9.22113 583.941 10.8195C578.703 13.3563 570.431 21.2689 518.859 73.0687C463.203 128.972 449.441 143.94 449.441 148.569C449.441 150.519 449.931 150.368 461.151 144.973ZM452.863 129.679C455.381 126.801 457.441 124.159 457.441 123.808C457.441 123.457 454.736 122.864 451.431 122.49C448.126 122.116 443.288 121.163 440.681 120.372C434.001 118.345 432.035 118.541 428.404 121.596L425.214 124.28L435.578 129.545C441.277 132.44 446.468 134.832 447.113 134.861C447.758 134.889 450.346 132.557 452.863 129.679Z" fill="white"/>
</svg>
