<svg width="327" height="45" viewBox="0 0 327 45" fill="none" xmlns="http://www.w3.org/2000/svg">
<path d="M110.114 19.2014C110.89 24.9975 109.197 30.855 105.407 35.4854C101.618 40.1158 96.0426 43.1398 89.9078 43.892C83.773 44.6442 77.5813 43.0632 72.6949 39.4966C67.8084 35.93 64.6275 30.6701 63.8517 24.874C63.076 19.0779 64.7691 13.2203 68.5586 8.58992C72.348 3.95953 77.9234 0.935604 84.0582 0.183364C90.193 -0.568863 96.3846 1.01223 101.271 4.57879C106.158 8.14536 109.339 13.4052 110.114 19.2014ZM98.3668 26.6901C101.319 20.5195 98.6687 14.4224 92.4677 11.4448C87.776 9.19698 83.5909 9.60835 79.3852 12.5761C74.1512 16.2638 72.8209 23.2767 76.5917 28.4923C82.4959 36.6561 94.1714 35.4416 98.3668 26.6901Z" fill="#1A3E48"/>
<path d="M28.3139 21.3911C25.7012 28.0743 23.218 34.8358 20.8645 41.6757C20.0152 44.1537 17.8254 43.7962 15.4514 43.5269C14.0188 43.3653 13.5123 43.0224 13.057 41.6561C8.9059 29.0766 4.62352 16.5395 0.209826 4.04489C-0.202892 2.87933 -0.00676103 1.95372 0.79821 1.2681C2.06195 0.190697 6.09874 0.660861 7.76666 0.68045C9.3425 0.700039 9.92576 1.40523 10.3862 2.71281C12.1872 7.82558 13.9591 12.9498 15.7021 18.0854C16.05 19.1106 16.4099 19.997 16.7817 20.7447C16.8255 20.831 16.8952 20.9032 16.9817 20.9521C17.0682 21.0009 17.1677 21.0242 17.2676 21.019C17.3674 21.0137 17.4631 20.9802 17.5423 20.9226C17.6216 20.8651 17.681 20.7861 17.7128 20.6957C19.9265 14.4957 22.043 8.49653 24.0622 2.69813C24.6659 0.954696 25.3669 0.538409 27.3418 0.538409C28.6004 0.538409 29.7738 0.535165 30.8618 0.528635C31.2727 0.527332 31.6732 0.650971 32.0053 0.881674C32.3374 1.11238 32.5838 1.43815 32.7088 1.81172L39.048 20.681C39.0886 20.8011 39.1648 20.9072 39.2673 20.9866C39.3698 21.066 39.4942 21.1152 39.6254 21.1281C39.7566 21.1411 39.8888 21.1173 40.0061 21.0597C40.1234 21.002 40.2207 20.913 40.2861 20.8034C40.4123 20.5945 40.5436 20.2908 40.6801 19.8925C42.6243 14.2149 44.6077 8.55039 46.6304 2.89891C47.1557 1.42972 48.1585 0.65759 49.6388 0.582498C51.3528 0.499244 54.5249 0.00950864 55.8194 1.09671C57.5333 2.54141 55.7887 6.91958 55.1645 8.73648C51.5455 19.2755 47.9351 29.8161 44.3332 40.3583C43.8249 41.8406 43.211 42.9343 42.4913 43.6395C42.4526 43.6781 42.4058 43.7085 42.3538 43.7287C42.3018 43.749 42.2458 43.7586 42.1894 43.757L38.0861 43.7276C37.8678 43.7276 37.6819 43.6542 37.5284 43.5073C36.7951 42.8119 36.2681 41.9973 35.9475 41.0635C33.6826 34.4881 31.2456 27.929 28.6362 21.3862C28.6227 21.3557 28.6 21.3297 28.571 21.3117C28.5419 21.2936 28.5079 21.2843 28.4733 21.2848C28.4387 21.2853 28.4051 21.2957 28.3767 21.3146C28.3483 21.3336 28.3264 21.3602 28.3139 21.3911Z" fill="#1A3E48"/>
<path d="M152.017 23.3552C152.57 23.5903 152.841 23.4189 152.831 22.841C152.715 16.2819 152.679 9.75869 152.723 3.27141C152.739 1.08231 154.11 0.636672 156.187 0.528932C159.262 0.372218 163.309 -0.318312 163.34 3.39384C163.449 15.6926 163.456 27.9913 163.36 40.2901C163.324 44.9327 157.839 44.869 155.286 42.2881C148.448 35.3634 141.694 28.4598 135.026 21.5775C134.977 21.5266 134.914 21.4911 134.844 21.4757C134.774 21.4602 134.7 21.4657 134.634 21.4913C134.567 21.5168 134.51 21.5613 134.47 21.6187C134.431 21.6761 134.41 21.7438 134.412 21.8126C134.494 28.4272 134.533 34.8998 134.529 41.2303C134.529 42.6261 133.02 43.4341 131.608 43.5664C128.288 43.8749 123.985 44.3548 124.02 40.1236C124.092 31.6088 124.111 19.279 124.077 3.13427C124.072 1.28309 125.98 0.612187 127.633 0.499549C129.226 0.395074 130.673 1.02843 131.976 2.39967C138.276 9.02734 144.542 15.6811 150.774 22.3611C151.251 22.8736 151.666 23.205 152.017 23.3552Z" fill="#1A3E48"/>
<path d="M181.651 3.1097C181.652 2.75856 181.726 2.41113 181.867 2.0872C182.009 1.76328 182.216 1.46922 182.476 1.22184C182.736 0.974449 183.045 0.778552 183.385 0.645364C183.724 0.512176 184.088 0.444286 184.454 0.445575L198.918 0.494566C201.976 0.50458 205.002 1.06977 207.824 2.15786C210.645 3.24596 213.206 4.83565 215.361 6.83615C217.516 8.83665 219.223 11.2088 220.384 13.8171C221.544 16.4254 222.136 19.2188 222.126 22.0378V22.2239C222.105 27.9164 219.632 33.3675 215.251 37.3782C210.87 41.3889 204.94 43.6306 198.765 43.6103L184.301 43.5614C183.934 43.5601 183.571 43.4897 183.233 43.3541C182.894 43.2185 182.587 43.0205 182.329 42.7713C182.07 42.5221 181.865 42.2266 181.726 41.9017C181.587 41.5768 181.516 41.2288 181.518 40.8776L181.651 3.1097ZM192.021 11.0482L192.062 33.2036C192.062 33.401 192.144 33.5904 192.29 33.73C192.436 33.8696 192.634 33.948 192.84 33.948L198.954 33.9382C202.302 33.9328 205.51 32.6936 207.873 30.4931C210.236 28.2925 211.561 25.311 211.556 22.2043V21.9888C211.553 20.4504 211.224 18.9275 210.587 17.5072C209.95 16.0869 209.018 14.797 207.845 13.711C206.671 12.625 205.278 11.7643 203.745 11.178C202.213 10.5918 200.571 10.2914 198.913 10.2941L192.799 10.3038C192.593 10.3038 192.395 10.3823 192.249 10.5219C192.103 10.6615 192.021 10.8508 192.021 11.0482Z" fill="#1A3E48"/>
<path d="M250.015 10.7838L250.076 17.5519C250.076 17.7608 250.186 17.8669 250.404 17.8702C257.168 17.9943 261.598 17.9894 263.696 17.8555C265.978 17.7053 267.281 18.435 267.605 20.0446C267.81 21.0534 267.84 24.2171 267.303 25.3141C266.776 26.4062 265.359 26.7637 264.07 26.7637C259.751 26.7637 255.328 26.7653 250.798 26.7686C250.615 26.7686 250.439 26.8388 250.309 26.9637C250.18 27.0886 250.107 27.258 250.107 27.4346L250.102 33.9627C250.102 34.1357 250.192 34.2223 250.373 34.2223C260.217 34.2941 266.493 34.2957 269.201 34.2272C270.62 34.188 271.765 34.472 272.634 35.0793C272.709 35.1318 272.771 35.1986 272.816 35.2753C272.862 35.352 272.891 35.437 272.9 35.5249C273.088 37.3369 273.144 39.1245 273.069 40.8875C272.972 43.0913 271.56 43.6838 269.467 43.6398C265.282 43.5581 256.431 43.5467 242.914 43.6055C240.642 43.6153 239.532 42.959 239.521 40.7357C239.474 28.4108 239.452 16.0876 239.455 3.76599C239.455 0.901069 241.01 0.587646 243.661 0.587646C252.478 0.590911 261.291 0.59743 270.102 0.607225C272.029 0.61049 273.001 1.49526 273.018 3.26155C273.033 4.72094 273.443 8.73184 272.266 9.73089C271.703 10.2043 270.984 10.4361 270.107 10.4263C263.514 10.361 256.92 10.3773 250.327 10.4753C250.286 10.4759 250.244 10.4844 250.206 10.5002C250.168 10.5161 250.133 10.539 250.104 10.5676C250.075 10.5963 250.053 10.6302 250.037 10.6672C250.022 10.7043 250.014 10.7439 250.015 10.7838Z" fill="#1A3E48"/>
<path d="M300.58 31.0487C300.56 34.1372 300.546 37.2274 300.539 40.3193C300.534 42.332 299.808 43.6249 297.613 43.6935C294.507 43.7914 290.271 44.5358 290.25 40.858C290.199 28.2882 290.189 15.7169 290.22 3.14388C290.226 1.44615 291.197 0.598916 293.131 0.602181C297.183 0.605446 301.233 0.598927 305.282 0.582603C310.068 0.559749 313.369 0.789909 315.187 1.27311C322.529 3.22713 327.39 9.6524 326.975 16.9298C326.679 22.1568 323.739 25.9947 318.155 28.4433C317.988 28.5151 317.955 28.6245 318.058 28.7714C320.408 32.1734 322.768 35.5901 325.139 39.0215C329.14 44.8052 320.534 43.8355 317.843 43.4731C316.533 43.2968 316.011 42.6161 315.31 41.666C312.68 38.091 310.027 34.5339 307.349 30.9948C307.247 30.8544 307.105 30.7859 306.925 30.7891L300.831 30.8038C300.664 30.8071 300.58 30.8887 300.58 31.0487ZM300.565 11.0481L300.606 21.1268C300.607 21.309 300.684 21.4834 300.819 21.6119C300.954 21.7403 301.137 21.8124 301.327 21.8124L309.749 21.783C310.693 21.7798 311.627 21.6311 312.498 21.3451C313.369 21.0591 314.16 20.6416 314.826 20.1163C315.492 19.5911 316.019 18.9684 316.378 18.2838C316.736 17.5993 316.92 16.8662 316.917 16.1266V15.9307C316.911 14.4371 316.149 13.0073 314.797 11.9557C313.445 10.9041 311.614 10.317 309.708 10.3233L301.286 10.3527C301.191 10.3527 301.097 10.3707 301.009 10.4057C300.921 10.4407 300.841 10.492 300.774 10.5567C300.707 10.6213 300.654 10.698 300.618 10.7824C300.582 10.8667 300.564 10.957 300.565 11.0481Z" fill="#1A3E48"/>
</svg>
